<?xml version="1.0" encoding="utf-8"?>
<!-- Generator: Adobe Illustrator 24.2.0, SVG Export Plug-In . SVG Version: 6.00 Build 0)  -->
<svg version="1.1" id="Layer_1" xmlns="http://www.w3.org/2000/svg" xmlns:xlink="http://www.w3.org/1999/xlink" x="0px" y="0px"
	 viewBox="0 0 1000 1000" style="enable-background:new 0 0 1000 1000;" xml:space="preserve">
<style type="text/css">
	.st0{fill:#262F3E;}
	.st1{fill:#F8991D;}
</style>
<g>
	<path class="st0" d="M310.3,428.9c0,10.7,1.2,19.4,3.2,25.7c2.3,6.4,5.2,13.3,9.3,20.8c1.4,2.3,2,4.6,2,6.7c0,2.9-1.7,5.8-5.5,8.7
		L301,502.9c-2.6,1.7-5.2,2.6-7.5,2.6c-2.9,0-5.8-1.4-8.7-4c-4-4.3-7.5-9-10.4-13.6c-2.9-4.9-5.8-10.4-9-17.1
		c-22.6,26.6-50.9,39.9-85,39.9c-24.3,0-43.7-6.9-57.8-20.8c-14.2-13.9-21.4-32.4-21.4-55.5c0-24.6,8.7-44.5,26.3-59.6
		c17.6-15,41.1-22.6,70.9-22.6c9.8,0,20,0.9,30.7,2.3s21.7,3.8,33.3,6.4v-21.1c0-22-4.6-37.3-13.6-46.3c-9.3-9-24.9-13.3-47.1-13.3
		c-10.1,0-20.5,1.2-31.2,3.8c-10.7,2.6-21.1,5.8-31.2,9.8c-4.6,2-8.1,3.2-10.1,3.8c-2,0.6-3.5,0.9-4.6,0.9c-4,0-6.1-2.9-6.1-9v-14.2
		c0-4.6,0.6-8.1,2-10.1c1.4-2,4-4,8.1-6.1c10.1-5.2,22.3-9.5,36.4-13c14.2-3.8,29.2-5.5,45.1-5.5c34.4,0,59.6,7.8,75.8,23.4
		c15.9,15.6,24,39.3,24,71.1v93.7H310.3z M192.9,472.8c9.5,0,19.4-1.7,29.8-5.2c10.4-3.5,19.7-9.8,27.5-18.5
		c4.6-5.5,8.1-11.6,9.8-18.5s2.9-15.3,2.9-25.2v-12.1c-8.4-2-17.4-3.8-26.6-4.9c-9.3-1.2-18.2-1.7-27.2-1.7
		c-19.4,0-33.5,3.8-43.1,11.6c-9.5,7.8-14.2,18.8-14.2,33.3c0,13.6,3.5,23.7,10.7,30.7C169.4,469.3,179.6,472.8,192.9,472.8
		L192.9,472.8z M425.1,504c-5.2,0-8.7-0.9-11-2.9c-2.3-1.7-4.3-5.8-6.1-11.3l-68-223.5c-1.7-5.8-2.6-9.5-2.6-11.6
		c0-4.6,2.3-7.2,6.9-7.2h28.3c5.5,0,9.3,0.9,11.3,2.9c2.3,1.7,4,5.8,5.8,11.3l48.6,191.4l45.1-191.4c1.4-5.8,3.2-9.5,5.5-11.3
		c2.3-1.7,6.4-2.9,11.6-2.9h23.1c5.5,0,9.3,0.9,11.6,2.9c2.3,1.7,4.3,5.8,5.5,11.3l45.7,193.8l50-193.8c1.7-5.8,3.8-9.5,5.8-11.3
		c2.3-1.7,6.1-2.9,11.3-2.9h26.9c4.6,0,7.2,2.3,7.2,7.2c0,1.4-0.3,2.9-0.6,4.6c-0.3,1.7-0.9,4-2,7.2l-69.7,223.5
		c-1.7,5.8-3.8,9.5-6.1,11.3c-2.3,1.7-6.1,2.9-11,2.9h-24.9c-5.5,0-9.3-0.9-11.6-2.9c-2.3-2-4.3-5.8-5.5-11.6l-44.8-186.5L467,489.6
		c-1.4,5.8-3.2,9.5-5.5,11.6c-2.3,2-6.4,2.9-11.6,2.9H425.1z M796.7,511.9c-15,0-30.1-1.7-44.5-5.2c-14.5-3.5-25.7-7.2-33.3-11.6
		c-4.6-2.6-7.8-5.5-9-8.1c-1.2-2.6-1.7-5.5-1.7-8.1v-14.7c0-6.1,2.3-9,6.7-9c1.7,0,3.5,0.3,5.2,0.9s4.3,1.7,7.2,2.9
		c9.8,4.3,20.5,7.8,31.8,10.1c11.6,2.3,22.8,3.5,34.4,3.5c18.2,0,32.4-3.2,42.2-9.5c9.8-6.4,15-15.6,15-27.5
		c0-8.1-2.6-14.7-7.8-20.2c-5.2-5.5-15-10.4-29.2-15l-41.9-13c-21.1-6.7-36.7-16.5-46.3-29.5c-9.5-12.7-14.5-26.9-14.5-41.9
		c0-12.1,2.6-22.8,7.8-32.1s12.1-17.4,20.8-23.7c8.7-6.7,18.5-11.6,30.1-15c11.6-3.5,23.7-4.9,36.4-4.9c6.4,0,13,0.3,19.4,1.2
		c6.7,0.9,12.7,2,18.8,3.2c5.8,1.4,11.3,2.9,16.5,4.6c5.2,1.7,9.3,3.5,12.1,5.2c4,2.3,6.9,4.6,8.7,7.2c1.7,2.3,2.6,5.5,2.6,9.5v13.6
		c0,6.1-2.3,9.3-6.7,9.3c-2.3,0-6.1-1.2-11-3.5c-16.5-7.5-35-11.3-55.5-11.3c-16.5,0-29.5,2.6-38.5,8.1s-13.6,13.9-13.6,25.7
		c0,8.1,2.9,15,8.7,20.5s16.5,11,31.8,15.9l41.1,13c20.8,6.7,35.9,15.9,44.8,27.8s13.3,25.4,13.3,40.5c0,12.4-2.6,23.7-7.5,33.5
		c-5.2,9.8-12.1,18.5-21.1,25.4c-9,7.2-19.7,12.4-32.1,16.2C825,509.8,811.5,511.9,796.7,511.9L796.7,511.9z"/>
	<path class="st1" d="M851.4,652.4C756.2,722.7,618,760,499.1,760c-166.6,0-316.7-61.6-430-164c-9-8.1-0.9-19.1,9.8-12.7
		c122.6,71.1,273.9,114.2,430.3,114.2c105.6,0,221.5-22,328.2-67.1C853.4,623.2,867,640.8,851.4,652.4L851.4,652.4z"/>
	<path class="st1" d="M891,607.3c-12.1-15.6-80.4-7.5-111.3-3.8c-9.3,1.2-10.7-6.9-2.3-13c54.4-38.2,143.7-27.2,154.1-14.5
		c10.4,13-2.9,102.4-53.8,145.2c-7.8,6.7-15.3,3.2-11.9-5.5C877.4,687.1,903.1,622.6,891,607.3z"/>
</g>
</svg>
