<svg xmlns="http://www.w3.org/2000/svg" fill="none" viewBox="0 0 24 24" id="Argo-Icon--Streamline-Svg-Logos" height="24" width="24">
  <desc>
    Argo Icon Streamline Icon: https://streamlinehq.com
  </desc>
  <path fill="#fefefe" d="M10.701825 19.30825c0.002 0 0.00405 0.00605 0.00405 0.0182 0.002 0.08495 0.004025 0.1679 0.00605 0.252875 0.01215 -0.06475 0.024275 -0.129475 0.03845 -0.196225 -0.010125 -0.123425 -0.107225 -0.0607 -0.04855 -0.07485Z" stroke-width="0.25"></path>
  <path fill="#fefefe" d="M16.0101 12.3899c-0.002075 0.00205 -0.0062 0.00205 -0.008275 0.004125 0.002075 0.00205 0.0062 0.004125 0.008275 0.0062 -0.002075 -0.00205 0 -0.0062 0 -0.010325Z" stroke-width="0.25"></path>
  <path fill="#fefefe" d="M12.666025 3.8977v0.00205h0.0062c-0.002075 0 -0.00415 -0.00205 -0.0062 -0.00205Z" stroke-width="0.25"></path>
  <path fill="#fe733e" d="M15.5083 20.9531c0.0263 -0.293325 0.012125 -0.5907 0.04855 -0.882 0.0809 -0.64125 0.00405 -1.296675 0.17195 -1.92985 0.082925 -0.327725 -0.182075 -0.712075 0.157775 -0.999325l-0.08495 -0.279175c-0.0727 -0.14745 -0.068925 -0.3211 0.0101 -0.465275 -0.01995 -0.562275 0.013925 -1.1252 0.10115 -1.681025 0.03035 -0.772775 0.0627 -1.545525 0.09305 -2.3203 -0.002 -0.002025 -0.006075 -0.00405 -0.008075 -0.006075 -1.652725 0.7586 -3.210375 -0.303425 -3.475375 -1.577875 -0.173975 -0.8375 -0.080925 -1.62845 0.572475 -2.267675 0.109225 -0.107225 0.2023 -0.230625 0.30345 -0.34795 0.267025 -1.600125 0.0809 -3.068775 -1.2866 -4.21375 0.204325 -0.117325 0.3884 -0.050575 0.5543 -0.0809v-0.002c-1.677 -0.420775 -3.712075 0.726225 -4.3857 2.478075 -0.209475 0.517675 -0.30405 1.074675 -0.277125 1.6325 1.662825 -0.77075 3.153725 0.1497 3.564375 1.551575 0.426825 1.458525 -0.71005 3.002 -2.221175 3.02425 -0.432675 0.0021 -0.86315 -0.062025 -1.27645 -0.19015 0.03035 0.805125 0.061375 1.61025 0.09305 2.415375 0.0741 0.52525 0.1059 1.055625 0.095075 1.585975 0.00405 0.125425 0.0081 0.250825 0.01215 0.37625 -0.00405 0.08295 -0.0081 0.165875 -0.01215 0.25085 0.1052 0.508425 0.168125 1.024675 0.18815 1.543475 -0.003675 -0.013275 -0.006375 -0.026775 -0.0081 -0.04045 0.002025 0.014175 0.006075 0.0263 0.0081 0.04045 0.04045 0.879975 0.064725 1.761975 0.127425 2.64195 0.0263 0.364125 -0.105175 0.546175 -0.441 0.63925 -0.396475 0.11125 -0.7869 0.24475 -1.17935 0.370175 0.51785 0.065125 1.040125 0.088125 1.561675 0.068775 0.56035 -0.012125 0.81525 -0.26095 0.869875 -0.81725 0.034375 -0.354 0.064725 -0.708025 0.0971 -1.062025 0.0364 -0.641275 0.072825 -1.28455 0.109225 -1.925825h0.0789v1.83075c0.0101 0.277125 0.01415 0.5563 0.03235 0.833425 0.080925 1.29265 0.11935 1.284575 -1.169225 1.545525 -0.029525 0.009175 -0.057975 0.021375 -0.084975 0.0364 0.076875 0.050575 0.15375 0.10115 0.230625 0.15375 0.023625 0.003825 0.04435 0.017875 0.056625 0.038425 0.307475 0.002025 0.617 0.028325 0.920425 0 0.552275 -0.0526 0.813225 -0.347925 0.853675 -0.89615 0.024275 -0.351975 0.0607 -0.703975 0.09105 -1.05595 -0.031475 -0.46475 0.00535 -0.931625 0.109225 -1.3857 -0.002025 -0.084975 -0.00405 -0.1679 -0.006075 -0.252875 0 -0.012125 -0.00405 -0.020225 -0.00405 -0.0182 -0.05865 0.01415 0.03845 -0.04855 0.04855 0.07485 0.010125 -0.054625 0.02225 -0.109225 0.032375 -0.16385v2.12c0.006075 0.248825 0.01415 0.495625 0.0182 0.74445 0.010125 0.9002 -0.046525 0.9811 -0.90425 1.238025 -0.236675 0.0708 -0.483475 0.113275 -0.718125 0.192175 -0.169925 0.05865 -0.386375 0.0263 -0.5462 0.226575 0.697925 -0.0263 1.351325 0.052575 2.000675 -0.0526 0.6716 -0.10925 0.938625 -0.380325 1.0762 -1.03575 0.10115 -0.48145 0.143625 -0.977075 0.3277 -1.464575 0.020875 0.0333 0.038475 0.068525 0.0526 0.105175 0.09305 0.45515 0.1861 0.91235 0.275125 1.3675 0.125425 0.637225 0.38435 0.908275 1.031675 1.021575 0.6696 0.1153 1.347275 0.0364 2.041125 0.0526 -0.099125 -0.169925 -0.254875 -0.141625 -0.3803 -0.178025 -0.430875 -0.125425 -0.86985 -0.232625 -1.29265 -0.378275 -0.307475 -0.107225 -0.527975 -0.30345 -0.523925 -0.681725 0.0101 -1.03575 0.00405 -2.071475 0.00405 -3.1072h0.1254c0.044525 0.64935 0.097125 1.296675 0.1315 1.94605 0.0789 1.501 0.2569 1.66485 1.763975 1.5819 0.084975 -0.1416 0.293325 -0.030325 0.372225 -0.18205 -0.3621 -0.002025 -0.677675 -0.176 -1.00945 -0.287275 -0.184 -0.063325 -0.30205 -0.2429 -0.28725 -0.436925 0.016175 -1.064075 -0.024275 -2.132175 0.11935 -3.192175 0.087 0.890075 0.155775 1.7822 0.22455 2.672275 0.03235 0.416725 0.2205 0.7424 0.65745 0.770725 0.590675 0.040475 1.1834 0.010125 1.776125 0.010125 -0.3082 -0.14305 -0.627525 -0.260775 -0.954825 -0.352 -0.7242 -0.232625 -0.720125 -0.234675 -0.653375 -0.971025ZM10.952675 5.77515c-0.002725 0.296025 -0.24205 0.535375 -0.5381 0.538075 -0.3176 0.006075 -0.5563 -0.175975 -0.56235 -0.58865 0.00275 -0.1431 0.064025 -0.2788 0.169525 -0.3755 0.1055 -0.096725 0.246 -0.145975 0.3888 -0.1363 0.378275 -0.006075 0.5482 0.2488 0.542125 0.562375Zm2.43155 8.848225c0.002025 0.8193 -0.625075 1.533375 -1.3412 1.531375 -0.67565 -0.002025 -1.36545 -0.799075 -1.341175 -1.5516 -0.036425 -0.222525 -0.07485 -0.44705 -0.125425 -0.7586 0.483475 0.32975 0.890075 0.667575 1.43425 0.679725 0.5563 0.0101 0.99325 -0.275125 1.4484 -0.6089 0.0971 0.267025 -0.147675 0.475375 -0.07485 0.708Z" stroke-width="0.25"></path>
  <path fill="#b5d2f3" d="M8.2602 16.3953c-0.040475 -0.01415 -0.0789 -0.03235 -0.11735 -0.046525 -0.5423 -0.236975 -1.0419 -0.561625 -1.47875 -0.960875C5.057925 14.000175 3.9979 12.2625 3.741 10.1546c-0.291325 -2.395125 0.24475 -4.606175 1.842875 -6.5057C7.0424 1.91728 8.90145 0.907845 11.1206 0.67521c2.465925 -0.2569125 4.681025 0.4329025 6.54615 2.136215 1.5227 1.3518 2.4846 3.22435 2.69655 5.249475 0.21855 1.738225 -0.1419 3.50005 -1.0256 5.012775 -0.823325 1.405925 -1.91975 2.54685 -3.40255 3.26905 -0.040475 0.020225 -0.080925 0.04045 -0.121375 0.05865 -0.08005 0.1439 -0.083825 0.31805 -0.010125 0.465275 0.03165 -0.034075 0.066925 -0.0646 0.1052 -0.091025 2.239375 -1.185425 3.792975 -2.9474 4.5192 -5.399175 0.0627 -0.20835 0.1598 -0.311525 0.39245 -0.28725 0.315575 0.03235 0.400525 -0.178025 0.400525 -0.441 0.002 -1.00945 0.002675 -2.0182 0.002 -3.0263 0 -0.21645 -0.0526 -0.45515 -0.27715 -0.479425 -0.412675 -0.04855 -0.46325 -0.349975 -0.546175 -0.6433 -0.45655 -1.67195 -1.441475 -3.15145 -2.807825 -4.2177675C14.739575 0.04203475 11.6081 -0.3625475 8.322875 1.1505975 5.8812 2.273315 4.325575 4.221375 3.6216 6.828925c-0.0445 0.16185 -0.024275 0.354025 -0.299375 0.297375 -0.39245 -0.080925 -0.540125 0.1497 -0.54215 0.497625 -0.006075 1.00945 -0.002025 2.01685 -0.002025 3.0263 0 0.3358 0.169925 0.513825 0.4936 0.434925 0.297375 -0.072825 0.368175 0.07485 0.42885 0.301425 0.263 0.959025 0.70275 1.860525 1.2967 2.6581 0.86985 1.179375 1.929875 2.1261 3.277125 2.728925 -0.00405 -0.125425 -0.008075 -0.252875 -0.014125 -0.3783Z" stroke-width="0.25"></path>
  <path fill="#fe684b" d="M8.262375 17.02235c-0.299375 0.8395 -1.096425 0.819275 -1.7741 1.02965 0.509775 0.1315 1.02765 0.2832 1.537425 0.196225 0.303425 -0.0526 0.3621 0.05665 0.4066 0.236675 0.00405 0.014175 0.006075 0.028325 0.010125 0.0425 0.002 0.012125 0.006075 0.0263 0.0081 0.04045 -0.020025 -0.519475 -0.08295 -1.0364 -0.18815 -1.5455Z" stroke-width="0.25"></path>
  <path fill="#fe6446" d="M15.728775 18.14325c0.64735 0.293325 1.258275 -0.002025 1.88335 -0.087 -0.610925 -0.258925 -1.401875 -0.1254 -1.723525 -0.912325 -0.341875 0.28725 -0.076875 0.6716 -0.159825 0.999325Z" stroke-width="0.25"></path>
  <path fill="#fed6c8" d="M10.782825 19.21935c-0.0101 0.054625 -0.02225 0.10925 -0.03235 0.163875 -0.01215 0.064725 -0.0263 0.12945 -0.03845 0.196225 -0.103875 0.454075 -0.140675 0.920925 -0.109225 1.3857 0.151725 0.078875 0.04045 0.28725 0.18005 0.3722l-0.000025 -2.118Z" stroke-width="0.25"></path>
  <path fill="#feebe3" d="M9.5952 18.478875c-0.036425 0.641275 -0.072825 1.28455 -0.10925 1.925825 0.062725 -0.032375 0.125425 -0.0627 0.18815 -0.095075v-1.83075h-0.0789Z" stroke-width="0.25"></path>
  <path fill="#fe9166" d="M7.6936 22.91715h1.043825c-0.0182 -0.01215 -0.038425 -0.024275 -0.05665 -0.03845 -0.07685 -0.050575 -0.153725 -0.10115 -0.2306 -0.153725 -0.264975 -0.00585 -0.526525 0.060575 -0.756575 0.192175Z" stroke-width="0.25"></path>
  <path fill="#fe8f64" d="M15.26355 22.917325h1.0155c-0.185825 -0.135525 -0.414 -0.2001 -0.643275 -0.18205 -0.0789 0.153725 -0.289275 0.04045 -0.372225 0.18205Z" stroke-width="0.25"></path>
  <path fill="#e2f5fc" d="M15.9371 16.340775c1.4828 -0.72015 2.5772 -1.861075 3.40255 -3.269025 0.8837 -1.512725 1.244175 -3.27455 1.025625 -5.0128 -0.2102 -2.025625 -1.1724 -3.8988 -2.69655 -5.249475 -1.865125 -1.70127 -4.080225 -2.3931075 -6.546175 -2.134175 -2.2171 0.2306125 -4.0782 1.24207 -5.536725 2.9737 -1.600125 1.8995 -2.134175 4.11055 -1.842875 6.5057 0.2569 2.1099 1.316925 3.84555 2.923125 5.233275 0.437 0.399075 0.936575 0.723675 1.47875 0.9609 0.038425 0.016175 0.076875 0.032375 0.117325 0.046525 0.0108 -0.53035 -0.020975 -1.0607 -0.095075 -1.585975 -0.04045 -0.028325 -0.080925 -0.05665 -0.121375 -0.086975 -0.400125 -0.309475 -0.77365 -0.65185 -1.11665 -1.0236 -0.107225 -0.109225 -0.240725 -0.2023 -0.240725 -0.380325 -0.2387 0.17195 -0.41065 0.0526 -0.55025 -0.13755 -0.783475 -1.027875 -1.239525 -2.26775 -1.308825 -3.558325 -0.056625 -1.169225 0.04855 -2.306125 0.540125 -3.400525 0.6005 -1.3518 1.60555 -2.484075 2.8766 -3.2407 0.218475 -0.133525 0.3439 -0.01415 0.4956 0.08495 0.145625 -0.005725 0.281825 -0.07345 0.37425 -0.1861l-0.0182 -0.042475c-0.129475 -0.2731 -0.13555 -0.5826075 0.175975 -0.6554325 0.31355 -0.07485 0.491575 0.18004 0.4936 0.5097825 2.340525 -0.768715 4.517175 -0.4571875 6.481425 1.0418 1.46865 1.1207 2.310175 2.623725 2.5671 4.456475 0.33175 2.356725 -0.465275 4.31085 -2.1079 5.963575 -0.19385 0.19885 -0.416075 0.3679 -0.65945 0.501675 -0.042475 0.022275 -0.084975 0.0425 -0.12745 0.062725 -0.087225 0.55585 -0.1211 1.11875 -0.10115 1.68105 0.0364 -0.0182 0.07485 -0.03845 0.117325 -0.058675Z" stroke-width="0.25"></path>
  <path fill="#cdecf6" d="M16.703925 14.155825c1.6406 -1.652725 2.437625 -3.60685 2.1079 -5.963575 -0.256925 -1.834775 -1.09845 -3.3378 -2.5671 -4.456475 -1.96425 -1.498985 -4.142925 -1.8084925 -6.481425 -1.0418 -0.00405 0.002 -0.0081 0.006075 -0.01215 0.008075 -0.184075 0.117325 -0.3277 0.3702 -0.5927 0.2124 -0.016175 -0.010125 -0.03035 -0.0182 -0.046525 -0.030325 -0.09215 0.113 -0.228525 0.180825 -0.37425 0.1861 -0.006075 0.024275 -0.01415 0.046525 -0.02225 0.0708 -0.1679 0.47135 -0.6716 0.59475 -1.009425 0.87795 -0.906 0.735125 -1.595975 1.701925 -1.996625 2.7977 -0.6433 1.7923 -0.5118 3.5482 0.34995 5.2434 0.143075 0.274975 0.308875 0.5375 0.495625 0.7849 0.1018 0.134775 0.148125 0.30345 0.129475 0.471325v0.006075c0 0.176 0.1335 0.271075 0.240725 0.3803 0.3435 0.371275 0.716975 0.713625 1.11665 1.0236 0.04045 0.028325 0.0809 0.058675 0.121375 0.087 -0.03035 -0.805125 -0.061375 -1.61025 -0.09305 -2.415375 -0.002025 0 -0.002025 -0.002025 -0.00405 -0.002025 -0.699925 -0.4592 -1.21375 -1.04585 -1.302775 -1.91975 -0.11125 -1.0782 0.341875 -1.87525 1.223875 -2.455825 0.00405 -0.002 0.0081 -0.00605 0.012125 -0.008075 -0.027225 -0.55785 0.06735 -1.114925 0.27715 -1.6325 0.673625 -1.749825 2.7087 -2.89885 4.3857 -2.478075 0.0022 -0.000275 0.004425 0.00045 0.00605 0.002 1.112625 0.180025 2.026975 0.687775 2.6824 1.62035 0.528825 0.717875 0.790025 1.59805 0.738375 2.4882 0.63115 0.479425 1.140925 1.0418 1.22385 1.873225 0.111275 1.11865 -0.36615 1.935925 -1.3068 2.506375v0.010125c-0.03035 0.77275 -0.0627 1.5455 -0.09305 2.320275 0.0445 -0.020225 0.086975 -0.04045 0.12745 -0.0627 0.245775 -0.132725 0.4696 -0.3026 0.6635 -0.503675Z" stroke-width="0.25"></path>
  <path fill="#fe6b3c" d="M13.97905 7.92135c0.69385 -0.341875 1.367475 -0.1578 2.037075 0.0627 0.024275 0.0081 0.050575 0.016175 0.07485 0.024275 0.052225 -0.8902 -0.209025 -1.770575 -0.738375 -2.488175 -0.655425 -0.932575 -1.569775 -1.440325 -2.682375 -1.620375h-0.006075c-0.165875 0.032375 -0.349975 -0.0364 -0.554275 0.080925 1.367475 1.144975 1.555625 2.6136 1.286575 4.213725 0.042475 -0.020225 0.082925 -0.038425 0.1254 -0.05865 0.155775 -0.0708 0.3075 -0.139575 0.4572 -0.214425Z" stroke-width="0.25"></path>
  <path fill="#fe6142" d="M17.3168 9.883575c-0.08295 -0.831425 -0.592725 -1.3938 -1.223875 -1.873225 -0.024275 -0.008075 -0.050575 -0.016175 -0.074825 -0.024275 -0.671625 -0.2205 -1.343225 -0.404575 -2.0371 -0.0627 -0.149675 0.07485 -0.303425 0.14565 -0.45515 0.21645 -0.042475 0.020225 -0.082925 0.038425 -0.125425 0.058675 -0.101125 0.1153 -0.1942 0.240725 -0.303425 0.347925 -0.655425 0.63925 -0.74645 1.4302 -0.5725 2.2677 0.265025 1.27645 1.82265 2.3385 3.4774 1.581925 0.002025 -0.002025 0.006075 -0.002025 0.0081 -0.00405 0.94065 -0.572475 1.4201 -1.391775 1.3068 -2.508425Zm-2.474025 2.235325c-0.776225 -0.0082 -1.47095 -0.4835 -1.759825 -1.204 -0.2889 -0.7205 -0.115 -1.544075 0.440525 -2.086275 0.555525 -0.542175 1.3831 -0.696025 2.096375 -0.389725 0.71325 0.306325 1.17155 1.0124 1.160875 1.788575 0.00325 0.51075 -0.201425 1.00085 -0.566975 1.357625 -0.365525 0.35675 -0.86045 0.54945 -1.370975 0.5338Z" stroke-width="0.25"></path>
  <path fill="#fe6143" d="M7.989225 8.01635c-0.882 0.580575 -1.335125 1.3776 -1.223875 2.455825 0.089025 0.8739 0.60285 1.46055 1.302775 1.91975 0.002 0 0.002 0.002025 0.00405 0.002025 0.41325 0.12825 0.84375 0.192375 1.27645 0.19015 1.5091 -0.02225 2.648 -1.563725 2.221175 -3.024275 -0.410675 -1.401875 -1.903575 -2.3223 -3.5644 -1.551575 -0.005775 0.00185 -0.011225 0.0046 -0.016175 0.0081Zm1.20565 4.102475c-0.69095 0.009 -1.333825 -0.3527 -1.68485 -0.947925 -0.351025 -0.595225 -0.356425 -1.332825 -0.0142 -1.93315s0.979725 -0.971425 1.67075 -0.972575c0.6938 -0.013375 1.341225 0.3473 1.694975 0.9443s0.359175 1.3381 0.01425 1.940225c-0.34495 0.60215 -0.986975 0.9723 -1.680925 0.969125Z" stroke-width="0.25"></path>
  <path fill="#070909" d="M10.956675 14.780925c-0.07485 -0.07485 -0.12945 -0.176 -0.254875 -0.178025 -0.024275 0.752525 0.6635 1.54955 1.3412 1.5516 0.718125 0.002 1.3432 -0.712075 1.3412 -1.531375 -0.271075 0.1396 -0.443025 0.42685 -0.75455 0.5118 -0.62105 0.169925 -1.1915 0.12745 -1.672975 -0.354Z" stroke-width="0.25"></path>
  <path fill="#fdfcfb" d="M13.459075 13.915175c-0.45515 0.333775 -0.890075 0.619 -1.4484 0.608875 -0.5462 -0.0101 -0.950775 -0.34995 -1.43425 -0.6797 0.052575 0.31155 0.089 0.53405 0.1254 0.7586 0.125425 0.00405 0.18005 0.103175 0.2549 0.178025 0.479425 0.48145 1.051925 0.523925 1.67295 0.354 0.311525 -0.08495 0.483475 -0.370175 0.75455 -0.5118 -0.072825 -0.232625 0.17195 -0.441 0.07485 -0.708Z" stroke-width="0.25"></path>
  <path fill="#fea777" d="M10.4105 5.21455c-0.143125 -0.01105 -0.284425 0.037725 -0.39025 0.134725s-0.166675 0.233525 -0.168075 0.377075c0.006075 0.412675 0.244775 0.592725 0.562375 0.588675 0.29605 -0.002725 0.535375 -0.24205 0.5381 -0.5381 0.00605 -0.315575 -0.163875 -0.57045 -0.54215 -0.562375Z" stroke-width="0.25"></path>
  <path fill="#fdfefe" d="M6.684425 13.314425c0.018675 -0.167875 -0.027675 -0.336525 -0.129475 -0.471325 -0.18605 -0.247875 -0.3518 -0.51035 -0.4956 -0.7849 -0.861775 -1.6952 -0.995275 -3.4511 -0.349975 -5.2434 0.40065 -1.095775 1.090625 -2.062575 1.996625 -2.7977 0.337825 -0.2832 0.84155 -0.404575 1.00945 -0.87795 0.008625 -0.0232 0.01605 -0.046825 0.02225 -0.0708 -0.151725 -0.099125 -0.27715 -0.218475 -0.495625 -0.08495 -1.271025 0.756625 -2.276075 1.888875 -2.8766 3.2407 -0.49155 1.0944 -0.59675 2.2313 -0.5401 3.400525 0.070575 1.290325 0.526475 2.529825 1.308825 3.558325 0.139575 0.19015 0.31355 0.3095 0.550225 0.13755l0 -0.006075Z" stroke-width="0.25"></path>
  <path fill="#fbfdfe" d="M9.749075 2.702275c0.00405 -0.002 0.0081 -0.006075 0.01215 -0.0081 -0.00405 -0.3297225 -0.18005 -0.584615 -0.4936 -0.50977 -0.311525 0.07485 -0.30545 0.38437 -0.176 0.65542l0.018225 0.0425c0.01485 0.01105 0.0304 0.0212 0.046525 0.030325 0.265 0.159825 0.408625 -0.095075 0.5927 -0.210375Z" stroke-width="0.25"></path>
  <path fill="#fefefe" d="M16.780675 10.229575c0.014125 -0.510675 -0.178875 -1.00535 -0.535125 -1.3715 -0.35625 -0.36615 -0.84545 -0.57265 -1.3563 -0.572525 -0.68715 -0.0114 -1.32785 0.345725 -1.679525 0.93615 -0.351675 0.590425 -0.360575 1.323875 -0.023325 1.922675 0.33725 0.598775 0.9691 0.971325 1.6563 0.976625 0.51035 0.01495 1.004875 -0.178 1.37025 -0.5346s0.57025 -0.846275 0.567725 -1.356825Zm-1.842875 0.210375c-0.156925 0.015575 -0.313075 -0.036425 -0.4293 -0.143 -0.116225 -0.1066 -0.18155 -0.257625 -0.1796 -0.415325 -0.010175 -0.16425 0.049075 -0.32525 0.163325 -0.4437 0.114225 -0.118475 0.27295 -0.18355 0.437475 -0.17935 0.356025 0.0263 0.5563 0.23465 0.598775 0.606875 -0.04855 0.33175 -0.218475 0.568425 -0.590675 0.5745Z" stroke-width="0.25"></path>
  <path fill="#fefefe" d="M9.166575 8.267075c-0.691 0.001175 -1.3285 0.372275 -1.670725 0.9726 -0.34225 0.6003 -0.336825 1.337925 0.0142 1.93315 0.351025 0.595225 0.9939 0.9569 1.68485 0.947925 0.693925 0.003175 1.335975 -0.367 1.680925 -0.969125 0.344925 -0.602125 0.339475 -1.343225 -0.014275 -1.940225 -0.35375 -0.597 -1.00115 -0.9577 -1.694975 -0.944325Zm0.002025 2.172625c-0.157325 0.014425 -0.313325 -0.03895 -0.428825 -0.14675 -0.1155 -0.107775 -0.17955 -0.2597 -0.176025 -0.41765 -0.0087 -0.16455 0.052425 -0.325125 0.168375 -0.442225 0.115925 -0.117075 0.2759 -0.1798 0.440525 -0.17275 0.330675 0.004525 0.595125 0.2762 0.5907 0.606875 -0.044525 0.341875 -0.230625 0.56845 -0.59475 0.5725Z" stroke-width="0.25"></path>
  <path fill="#090b0b" d="M14.929725 9.258425c-0.164725 -0.00485 -0.323875 0.06 -0.43825 0.178625 -0.1144 0.118625 -0.173425 0.28 -0.162575 0.44445 -0.0023 0.1578 0.062925 0.309075 0.179225 0.415725 0.116325 0.10665 0.272675 0.15855 0.429675 0.1426 0.3702 -0.006075 0.54215 -0.24275 0.5907 -0.574525 -0.042475 -0.3722 -0.24275 -0.580575 -0.598775 -0.606875Z" stroke-width="0.25"></path>
  <path fill="#090c0c" d="M9.172575 9.26055c-0.164625 -0.007075 -0.324575 0.05565 -0.440525 0.17275 -0.115925 0.1171 -0.177075 0.277675 -0.168375 0.442225 -0.0035 0.157925 0.060525 0.309875 0.176025 0.41765 0.115525 0.107775 0.2715 0.16115 0.428825 0.146725 0.364125 -0.004025 0.55025 -0.2306 0.59475 -0.572475 -0.0344 -0.37425 -0.240725 -0.57855 -0.5907 -0.606875Z" stroke-width="0.25"></path>
</svg>