<svg xmlns="http://www.w3.org/2000/svg" fill="none" viewBox="0 0 24 24" id="Circleci--Streamline-Svg-Logos" height="24" width="24">
  <desc>
    Circleci Streamline Icon: https://streamlinehq.com
  </desc>
  <path fill="#343434" d="M11.832075 14.786475c1.5389 0 2.786425 -1.247525 2.786425 -2.786425s-1.247525 -2.786425 -2.786425 -2.786425 -2.786425 1.247525 -2.786425 2.786425 1.247525 2.786425 2.786425 2.786425Z" stroke-width="0.25"></path>
  <path fill="#343434" d="M0.4514175 9.045725c0 0.03355 -0.03357 0.1007 -0.03357 0.134275 0 0.30215 0.235 0.570725 0.5707125 0.570725H5.722125c0.235 0 0.402875 -0.1343 0.503575 -0.335725 0.973575 -2.148575 3.12215 -3.59215 5.57285 -3.59215 3.390725 0 6.143575 2.752875 6.143575 6.143575 0 3.390725 -2.75285 6.143575 -6.143575 6.143575 -2.484275 0 -4.599275 -1.47715 -5.57285 -3.558575 -0.1007 -0.235 -0.268575 -0.369275 -0.503575 -0.369275H0.98856c-0.3021425 0 -0.5707125 0.235 -0.5707125 0.5707 0 0.033575 0 0.100725 0.03357 0.1343C1.7607025 19.99 6.36 23.75 11.832125 23.75c6.4793 0 11.75 -5.270725 11.75 -11.75s-5.2707 -11.75 -11.75 -11.75C6.36 0.25 1.7607025 4.01 0.4514175 9.045725Z" stroke-width="0.25"></path>
</svg>