<svg xmlns="http://www.w3.org/2000/svg" fill="none" viewBox="0 0 96 96" id="Cypress-Icon--Streamline-Svg-Logos" height="24" width="24">
  <desc>
    Cypress Icon Streamline Icon: https://streamlinehq.com
  </desc>
  <path fill="url(#a)" d="m53.0123 83.2292-1.5918 3.8649c-.3163.765-1.0394 1.2831-1.853 1.3184-.5373.0202-1.0796.0352-1.627.0352-18.7354-.0099-35.3118-13.2602-39.41948-31.5178l-6.37747 1.4443C4.44847 68.6151 10.2334 77.9099 18.4337 84.5528c8.2956 6.7181 18.7456 10.427 29.4365 10.4471l.0955 0c.6276 0 1.2504-.015 1.8729-.0401 3.3544-.141 6.3524-2.2496 7.633-5.3747l2.0789-5.0525-6.5382-1.3034Z"></path>
  <path fill="url(#b)" d="M2.66721 60.4529C1.56245 56.417 1 52.2249 1 48.0028 1 28.7287 13.0669 11.1052 31.0293 4.15552l2.3551 6.11438C17.9228 16.2534 7.53814 31.4159 7.53814 48.0028c0 3.6384.48205 7.2415 1.43114 10.7138l-6.30207 1.7363Z"></path>
  <path fill="url(#c)" d="M83.8715 29.3827C76.8813 15.921 63.1222 7.5572 47.9721 7.5572c-5.3681 0-10.5855 1.03667-15.4968 3.0748l-2.5056-6.05399C35.6793 2.20777 41.7353 1 47.9721 1c17.6007 0 33.5794 9.7125 41.6993 25.3532l-5.7999 3.0295Z"></path>
  <path fill="#09293f" d="M33.947 38.3049c3.7913 0 6.8796 2.0281 8.4664 5.5658l.1255.2769 6.3674-2.169-.1357-.3271c-2.4656-6.0238-8.1449-9.768-14.8236-9.768-4.6952 0-8.5117 1.5099-11.6653 4.6098-3.1334 3.0798-4.7202 6.9548-4.7202 11.5191 0 4.5241 1.5868 8.3789 4.7202 11.4588 3.1536 3.1 6.9701 4.6097 11.6653 4.6097 6.6787 0 12.358-3.7441 14.8236-9.7629l.1357-.327-6.3774-2.1742-.1206.2869c-1.421 3.4774-4.5847 5.5558-8.4613 5.5558-2.6413 0-4.8709-.9259-6.6386-2.7477-1.7876-1.8469-2.6915-4.1668-2.6915-6.8943 0-2.7478.8838-5.0224 2.6915-6.9549 1.7626-1.8316 3.9973-2.7577 6.6386-2.7577Z"></path>
  <path fill="#09293f" d="m73.8285 32.4775-9.074 23.0332-9.1344-23.0332h-7.4722l12.8102 31.4374-9.1143 22.1726 6.5332 1.3035 22.5119-54.9135h-7.0604Z"></path>
  <path fill="url(#d)" d="M89.6715 26.353c3.3058 6.4399 5.3284 14.0039 5.3284 21.7463 0 18.0656-10.1605 33.7506-25.0617 41.6181l-3.2194-5.7089c12.9216-6.7387 21.7474-20.29 21.7474-35.9092 0-6.7779-1.6572-13.1054-4.5947-18.7167l5.8-3.0296Z"></path>
  <defs>
    <linearGradient id="a" x1="364.95" x2="4852.62" y1="1733.09" y2="2931.33" gradientUnits="userSpaceOnUse">
      <stop stop-color="#315c55"></stop>
      <stop offset="1" stop-color="#09293f"></stop>
    </linearGradient>
    <linearGradient id="b" x1="1759.39" x2="1341.74" y1="1538.94" y2="5605.29" gradientUnits="userSpaceOnUse">
      <stop stop-color="#4fb38d"></stop>
      <stop offset="1" stop-color="#315c55"></stop>
    </linearGradient>
    <linearGradient id="c" x1="860.36" x2="4172.52" y1="1420.14" y2="2027.28" gradientUnits="userSpaceOnUse">
      <stop stop-color="#4fb38d"></stop>
      <stop offset="1" stop-color="#97dec0"></stop>
    </linearGradient>
    <linearGradient id="d" x1="1589.93" x2="-216.115" y1="1983.82" y2="5365.35" gradientUnits="userSpaceOnUse">
      <stop stop-color="#97dec0"></stop>
      <stop offset="1" stop-color="#fffff0" stop-opacity="0"></stop>
    </linearGradient>
  </defs>
</svg>