<svg xmlns="http://www.w3.org/2000/svg" fill="none" viewBox="0 0 24 24" id="Docker-Icon--Streamline-Svg-Logos" height="24" width="24">
  <desc>
    Docker Icon Streamline Icon: https://streamlinehq.com
  </desc>
  <path fill="#2396ed" d="M23.264925 9.99205c-0.529175 -0.367175 -1.741875 -0.504875 -2.689975 -0.321275 -0.11025 -0.917925 -0.617375 -1.721125 -1.49935 -2.432525l-0.507125 -0.367175 -0.352775 0.527825c-0.440975 0.68845 -0.661475 1.652275 -0.595325 2.5702 0.02205 0.321275 0.1323 0.894975 0.463025 1.39985 -0.308675 0.183575 -0.9481 0.413075 -1.785975 0.413075H0.356005l-0.0440975 0.183575c-0.15434425 0.917925 -0.15434425 3.786475 1.653675 5.9895C3.332625 19.630325 5.361125 20.479425 8.02905 20.479425c5.77685 0 10.05435 -2.77675 12.060825 -7.802425 0.79375 0.02295 2.491525 0 3.35145 -1.721125 0.02205 -0.0459 0.066125 -0.137675 0.220475 -0.4819L23.75 10.290375l-0.485075 -0.298325ZM13.100325 3.520625h-2.425375v2.294825h2.425375v-2.294825Zm0 2.7538h-2.425375v2.294825h2.425375v-2.294825Zm-2.866375 0h-2.425375v2.294825h2.425375v-2.294825Zm-2.86635 0h-2.4254v2.294825h2.4254v-2.294825ZM4.501225 9.028225H2.0758275v2.294825h2.4253975v-2.294825Zm2.866375 0h-2.4254v2.294825h2.4254v-2.294825Zm2.86635 0h-2.425375v2.294825h2.425375v-2.294825Zm2.866375 0h-2.425375v2.294825h2.425375v-2.294825Zm2.866375 0h-2.4254v2.294825h2.4254v-2.294825Z" stroke-width="0.25"></path>
</svg>