<?xml version="1.0" encoding="utf-8"?>
<!-- Generator: Adobe Illustrator 24.2.0, SVG Export Plug-In . SVG Version: 6.00 Build 0)  -->
<svg version="1.0" id="Layer_1" xmlns="http://www.w3.org/2000/svg" xmlns:xlink="http://www.w3.org/1999/xlink" x="0px" y="0px"
	 viewBox="0 0 280 300" enable-background="new 0 0 280 300" xml:space="preserve">
<g>
	<path fill="#0F0D0E" d="M81.14,146.27H65.06c-0.42,0-0.75,0.34-0.75,0.75v7.87c0,0.41,0.34,0.75,0.75,0.75h6.28v9.77
		c0,0-1.41,0.48-5.31,0.48c-4.6,0-11.02-1.68-11.02-15.8c0-14.12,6.69-15.98,12.96-15.98c5.43,0,7.78,0.96,9.26,1.42
		c0.47,0.14,0.9-0.32,0.9-0.74l1.79-7.6c0-0.19-0.07-0.43-0.29-0.59c-0.6-0.43-4.3-2.5-13.62-2.5c-10.74,0-21.76,4.57-21.76,26.54
		c0,21.97,12.61,25.24,23.24,25.24c8.8,0,14.14-3.76,14.14-3.76c0.22-0.12,0.24-0.43,0.24-0.57v-24.53
		C81.9,146.61,81.56,146.27,81.14,146.27z"/>
	<path fill="#0F0D0E" d="M163.31,125.99h-9.06c-0.41,0-0.75,0.34-0.75,0.76c0,0,0,17.51,0,17.51h-14.12v-17.51
		c0-0.42-0.33-0.76-0.75-0.76h-9.06c-0.41,0-0.75,0.34-0.75,0.76v47.4c0,0.42,0.34,0.76,0.75,0.76h9.06c0.41,0,0.75-0.34,0.75-0.76
		v-20.28h14.12c0,0-0.02,20.28-0.02,20.28c0,0.42,0.34,0.76,0.75,0.76h9.08c0.42,0,0.75-0.34,0.75-0.76v-47.4
		C164.06,126.32,163.73,125.99,163.31,125.99z"/>
	<path fill="#0F0D0E" d="M92.4,127.07c-3.22,0-5.84,2.64-5.84,5.9c0,3.26,2.62,5.9,5.84,5.9c3.23,0,5.84-2.64,5.84-5.9
		C98.24,129.7,95.62,127.07,92.4,127.07z"/>
	<path fill="#0F0D0E" d="M96.84,141.51h-9.03c-0.41,0-0.78,0.43-0.78,0.84c0,0,0,26.33,0,31.35c0,0.92,0.57,1.2,1.32,1.2
		c0,0,3.85,0,8.14,0c0.89,0,1.11-0.44,1.11-1.21c0-1.68,0-8.26,0-9.54c0-1.21,0-21.88,0-21.88
		C97.59,141.85,97.26,141.51,96.84,141.51z"/>
	<path fill="#0F0D0E" d="M198.49,141.58h-8.99c-0.41,0-0.75,0.34-0.75,0.76v23.24c0,0-2.28,1.67-5.53,1.67
		c-3.24,0-4.1-1.47-4.1-4.64c0-3.18,0-20.27,0-20.27c0-0.42-0.33-0.76-0.75-0.76h-9.12c-0.41,0-0.75,0.34-0.75,0.76
		c0,0,0,12.38,0,21.8c0,9.43,5.25,11.73,12.48,11.73c5.93,0,10.71-3.28,10.71-3.28s0.23,1.73,0.33,1.93c0.1,0.2,0.37,0.41,0.66,0.41
		l5.8-0.03c0.41,0,0.75-0.34,0.75-0.76l0-31.82C199.24,141.92,198.9,141.58,198.49,141.58z"/>
	<path fill="#0F0D0E" d="M223.06,140.52c-5.11,0-8.58,2.28-8.58,2.28v-16.05c0-0.42-0.33-0.76-0.75-0.76h-9.08
		c-0.41,0-0.75,0.34-0.75,0.76v47.4c0,0.42,0.34,0.76,0.75,0.76c0,0,6.3,0,6.3,0c0.28,0,0.5-0.15,0.66-0.4
		c0.16-0.25,0.38-2.19,0.38-2.19s3.71,3.52,10.75,3.52c8.26,0,12.99-4.19,12.99-18.8C235.73,142.43,228.17,140.52,223.06,140.52z
		 M219.51,167.23c-3.12-0.09-5.23-1.51-5.23-1.51V150.7c0,0,2.09-1.28,4.65-1.51c3.24-0.29,6.36,0.69,6.36,8.41
		C225.28,165.75,223.88,167.36,219.51,167.23z"/>
	<path fill="#0F0D0E" d="M123.75,167.05c-0.4,0-1.41,0.16-2.45,0.16c-3.34,0-4.47-1.55-4.47-3.56c0-2.01,0-13.33,0-13.33h6.8
		c0.41,0,0.75-0.34,0.75-0.76v-7.3c0-0.42-0.34-0.76-0.75-0.76h-6.8c0,0-0.01-8.98-0.01-8.98c0-0.34-0.18-0.51-0.57-0.51h-9.26
		c-0.36,0-0.55,0.16-0.55,0.5v9.28c0,0-4.64,1.12-4.95,1.21c-0.31,0.09-0.54,0.38-0.54,0.72v5.83c0,0.42,0.33,0.76,0.75,0.76h4.75
		c0,0,0,6.1,0,14.03c0,10.42,7.31,11.44,12.24,11.44c2.25,0,4.95-0.72,5.39-0.89c0.27-0.1,0.43-0.38,0.43-0.68l0.01-6.41
		C124.5,167.39,124.15,167.05,123.75,167.05z"/>
</g>
</svg>
