<?xml version="1.0" encoding="utf-8"?>
<!-- Generator: Adobe Illustrator 24.2.0, SVG Export Plug-In . SVG Version: 6.00 Build 0)  -->
<svg version="1.0" id="Layer_1" xmlns="http://www.w3.org/2000/svg" xmlns:xlink="http://www.w3.org/1999/xlink" x="0px" y="0px"
	 viewBox="0 0 300 280" enable-background="new 0 0 300 280" xml:space="preserve">
<g>
	<g>
		<path fill="#557EBF" d="M56.49,221.22h34.45v-83.66l-49.21-36.91v105.81C41.73,214.62,48.34,221.22,56.49,221.22L56.49,221.22z"/>
		<path fill="#36A852" d="M209.06,221.22h34.45c8.16,0,14.76-6.61,14.76-14.76V100.65l-49.21,36.91V221.22z"/>
		<path fill="#F9BC15" d="M209.06,73.58v63.98l49.21-36.91V80.96c0-18.25-20.83-28.67-35.43-17.72L209.06,73.58z"/>
	</g>
	<path fill-rule="evenodd" clip-rule="evenodd" fill="#EA4535" d="M90.94,137.56V73.58L150,117.87l59.06-44.29v63.98L150,181.85
		L90.94,137.56z"/>
	<path fill="#C52627" d="M41.73,80.96v19.69l49.21,36.91V73.58L77.16,63.25C62.56,52.29,41.73,62.72,41.73,80.96L41.73,80.96z"/>
</g>
</svg>
