<?xml version="1.0" encoding="utf-8"?>
<!-- Generator: Adobe Illustrator 24.2.0, SVG Export Plug-In . SVG Version: 6.00 Build 0)  -->
<svg version="1.1" id="Layer_1" xmlns="http://www.w3.org/2000/svg" xmlns:xlink="http://www.w3.org/1999/xlink" x="0px" y="0px"
	 viewBox="0 0 1000 1000" style="enable-background:new 0 0 1000 1000;" xml:space="preserve">
<style type="text/css">
	.st0{fill-rule:evenodd;clip-rule:evenodd;fill:#0CAC69;}
	.st1{fill-rule:evenodd;clip-rule:evenodd;fill:#FDE141;}
	.st2{fill-rule:evenodd;clip-rule:evenodd;fill:#5C85C4;}
	.st3{fill-rule:evenodd;clip-rule:evenodd;fill:#FFFFFF;}
	.st4{fill-rule:evenodd;clip-rule:evenodd;fill:#D3D3D3;}
	.st5{fill:#F0F0F0;}
	.st6{fill-rule:evenodd;clip-rule:evenodd;fill:#E24F3C;}
	.st7{fill-rule:evenodd;clip-rule:evenodd;fill:#893329;}
</style>
<g>
	<path class="st0" d="M112.7,830.1V239.4c0-34.3,27.9-62.2,62.2-62.2h590.7L112.7,830.1z"/>
	<path class="st1" d="M112.7,842.5v-12.4l652.9-652.9H778c34.3,0,62.2,27.9,62.2,62.2v12.4L187.3,904.7h-12.4
		C140.5,904.7,112.7,876.8,112.7,842.5z"/>
	<polygon class="st2" points="187.3,904.7 476.4,615.6 765.6,904.7 	"/>
	<path class="st3" d="M765.6,904.7L472,611.2l74.6-74.6l293.6,293.6v12.4c0,34.3-27.9,62.2-62.2,62.2H765.6z"/>
	<polygon class="st4" points="840.2,830.1 551,541 840.2,251.8 	"/>
	<path class="st5" d="M391.7,334.3h-38.3h-59.2v33.8h57.7c-8.1,24-30.9,41.3-57.7,41.3c-33.6,0-60.9-27.3-60.9-60.9
		s27.3-60.9,60.9-60.9c15.2,0,29.1,5.6,39.8,14.8l26.9-26.3c-17.6-16.2-41-26.1-66.8-26.1c-54.4,0-98.5,44.1-98.5,98.5
		c0,54.4,44.1,98.5,98.5,98.5c47.7,0,87.5-33.9,96.5-78.9c1.3-6.3,1.9-12.9,1.9-19.5C392.7,343.8,392.4,339,391.7,334.3z"/>
	<g>
		<path class="st6" d="M709.8,695.8h-0.3c-6.5,0-9.9-4.9-10.6-10.2C683,570.8,652.9,527.7,627.2,485
			C584.4,414.2,514,335.7,514,257.8c0-98.1,80.3-184.5,195.4-184.5h0.6c115.1,0,195.4,86.4,195.4,184.5
			c0,77.9-70.5,156.4-113.2,227.2c-25.8,42.7-55.8,85.8-71.7,200.5C719.7,690.8,716.3,695.8,709.8,695.8z"/>
		<ellipse class="st7" cx="709.6" cy="260.2" rx="67.4" ry="67.4"/>
	</g>
</g>
</svg>
