<svg xmlns="http://www.w3.org/2000/svg" fill="none" viewBox="0 0 24 24" id="Graphql--Streamline-Svg-Logos" height="24" width="24">
  <desc>
    Graphql Streamline Icon: https://streamlinehq.com
  </desc>
  <path fill="#e535ab" fill-rule="evenodd" d="m14.0078 2.94305 4.832125 2.789925c0.136075 -0.144125 0.295 -0.271375 0.4753 -0.3761 1.002175 -0.5761 2.2804 -0.23405 2.8625 0.768125 0.5761 1.002175 0.234025 2.2804 -0.76815 2.862475 -0.1789 0.102875 -0.366825 0.17645 -0.558075 0.22225v5.582c0.189175 0.0459 0.37505 0.119 0.552075 0.2208 1.008175 0.5821 1.35025 1.8603 0.76815 2.862475 -0.5761 1.002175 -1.860325 1.344225 -2.8625 0.768125 -0.199525 -0.1147 -0.372875 -0.25745 -0.518025 -0.420475L13.988525 20.99555c0.068675 0.20745 0.105825 0.429375 0.105825 0.6601 0 1.1522 -0.936175 2.09435 -2.094375 2.09435 -1.158175 0 -2.09435 -0.93615 -2.09435 -2.09435 0 -0.205875 0.029575 -0.404725 0.084725 -0.592575L5.1595 18.2739c-0.1346 0.1413 -0.291325 0.266175 -0.46875 0.369225 -1.008175 0.5761 -2.2863975 0.23405 -2.862495 -0.768125 -0.5760975 -1.002175 -0.23404 -2.280375 0.76812 -2.862475 0.1772 -0.101875 0.363025 -0.175025 0.5521 -0.2209V9.209725c-0.19125 -0.0458 -0.379175 -0.119375 -0.5581 -0.22225C1.588215 8.4114 1.246155 7.127175 1.822255 6.125c0.5760975 -1.002175 1.86032 -1.344225 2.862495 -0.768125 0.1793 0.10415 0.3375 0.2306 0.473075 0.37375L9.99125 2.93995c-0.055725 -0.188725 -0.085625 -0.3886 -0.085625 -0.5955925C9.905625 1.18616 10.8418 0.25 11.999975 0.25c1.1582 0 2.094375 0.93616 2.094375 2.0943575 0 0.2081175 -0.030225 0.4090675 -0.08655 0.5986925Zm-0.50345 0.8596L18.348 6.5992c-0.149725 0.52585 -0.094775 1.108925 0.1991 1.62015 0.29485 0.5129 0.77515 0.8529 1.308225 0.9854v5.589c-0.027175 0.006675 -0.0542 0.013875 -0.081075 0.021625L13.4481 3.8585c0.0191 -0.018275 0.03785 -0.0369 0.05625 -0.05585Zm-2.951175 0.057125L4.22715 14.81645c-0.02735 -0.00795 -0.05485 -0.015325 -0.0825 -0.02215V9.20475c0.53305 -0.1325 1.013375 -0.4725 1.308225 -0.9854 0.29445 -0.51225 0.34905 -1.0966 0.198225 -1.623275l4.842275 -2.795775c0.019525 0.020225 0.039475 0.04005 0.0598 0.059475Zm2.032 0.496375 6.3246 10.9542c-0.14155 0.13495 -0.2663 0.2922 -0.368675 0.4703 -0.101775 0.17705 -0.1749 0.3629 -0.220775 0.552075H5.679775c-0.045875 -0.189075 -0.11905 -0.3749 -0.2209 -0.552075 -0.102775 -0.176975 -0.227275 -0.33335 -0.368125 -0.467725l6.325825 -10.956275c0.185125 0.053425 0.380875 0.082075 0.5834 0.082075 0.2032 0 0.399525 -0.028825 0.5852 -0.082575Zm0.96365 15.888525 4.8122 -2.7784c-0.014425 -0.04535 -0.02735 -0.09115 -0.038675 -0.137375h-12.64525c-0.006725 0.02715 -0.01395 0.054175 -0.02175 0.08105l4.835825 2.792025c0.38075 -0.39515 0.91565 -0.6407 1.5088 -0.6407 0.61425 0 1.16605 0.263325 1.54885 0.6834Z" clip-rule="evenodd" stroke-width="0.25"></path>
</svg>