<svg xmlns="http://www.w3.org/2000/svg" fill="none" viewBox="0 0 24 24" id="Javascript--Streamline-Svg-Logos" height="24" width="24">
  <desc>
    Javascript Streamline Icon: https://streamlinehq.com
  </desc>
  <path fill="#f7df1e" d="M0.25 0.25h23.5v23.5H0.25V0.25Z" stroke-width="0.25"></path>
  <path fill="#000000" d="m6.429125 19.8883 1.798375 -1.08835c0.34695 0.61515 0.66255 1.1356 1.419575 1.1356 0.725675 0 1.183175 -0.28385 1.183175 -1.387975V11.03875h2.2084v7.54005c0 2.287325 -1.34075 3.32845 -3.2969 3.32845 -1.766625 0 -2.792125 -0.914975 -3.312675 -2.01915" stroke-width="0.25"></path>
  <path fill="#000000" d="m14.238025 19.651675 1.798175 -1.041125c0.47335 0.773025 1.088575 1.340875 2.17695 1.340875 0.91505 0 1.49855 -0.4575 1.49855 -1.0885 0 -0.757175 -0.5994 -1.025375 -1.609 -1.466925l-0.55195 -0.236775c-1.593325 -0.6782 -2.650275 -1.53 -2.650275 -3.32835 0 -1.65635 1.26195 -2.918375 3.23385 -2.918375 1.403975 0 2.413525 0.489075 3.1391 1.766825l-1.719475 1.104175c-0.3786 -0.67825 -0.788625 -0.946375 -1.419575 -0.946375 -0.646775 0 -1.05695 0.410125 -1.05695 0.946375 0 0.66255 0.410175 0.930775 1.35655 1.34095l0.552075 0.2366c1.8772 0.804575 2.934125 1.62475 2.934125 3.470325 0 1.987725 -1.56165 3.076075 -3.65965 3.076075 -2.0507 0 -3.375825 -0.977975 -4.0225 -2.255775Z" stroke-width="0.25"></path>
</svg>