<?xml version="1.0" encoding="utf-8"?>
<!-- Generator: Adobe Illustrator 23.0.1, SVG Export Plug-In . SVG Version: 6.00 Build 0)  -->
<svg version="1.1" id="Layer_1" xmlns="http://www.w3.org/2000/svg" xmlns:xlink="http://www.w3.org/1999/xlink" x="0px" y="0px"
	 viewBox="0 0 1000 1000" style="enable-background:new 0 0 1000 1000;" xml:space="preserve">
<style type="text/css">
	.st0{fill:#9A4350;}
</style>
<path class="st0" d="M925,492.4c0-59.9-41.2-110.3-96.5-124.7L952.3,2.5H338.5l124.1,366.4c-53.6,15.5-93,65.1-93,123.9
	c0,43.2,21.8,81.5,54.4,105.1c-13,18.4-27.9,35.4-44.9,51.6c-32,30-67.4,53-105.7,68.2c-34.6-23.3-49.5-64.5-36-101.4
	c52.7-16.1,91-65.4,91-123.3c0-71.2-57.9-128.8-128.8-128.8c-71.2,0-129,57.9-129,129c0,33.9,13.5,66.4,37.5,90.4l-6.1,12.4
	c-19.3,39.8-41.2,84.7-49.5,135.2c-16.7,100.8,10.7,181.8,76.6,227.6c37.3,25.7,78,38.6,122.1,38.6c75.8,0,152.7-38,227-74.9
	c53-26.2,107.7-53.6,161.6-66.8c19.9-4.9,40.6-7.8,62.5-10.9c44.4-6.3,90.2-13,131.4-36.9c48.1-27.9,80.9-74.6,90.4-128.2
	c7.2-41.2,0-82.7-18.4-119c12.4-19.9,19.3-43.2,19.3-68.2L925,492.4z M868.8,492.4c0,40-32.6,72.6-72.6,72.6
	c-40,0-72.6-32.6-72.6-72.6c0-13,3.5-25.3,9.5-36c2.3-4,5.2-8.1,8.1-11.5c3-3.5,6.4-6.7,10.1-9.5l0.3-0.3c2.3-1.7,4.9-3.5,7.5-5.2
	c0,0,0.3,0,0.3-0.3c1.2-0.6,2.3-1.4,3.5-2c0.3,0,0.6-0.3,0.9-0.3c1.2-0.6,2.6-1.2,4-1.7s2.9-1.2,4-1.7c0.3,0,0.6-0.3,0.9-0.3
	c1.2-0.3,2.3-0.9,3.5-1.2c0.3,0,0.9-0.3,1.2-0.3l4-0.9h0.3l4.3-0.9c0.3,0,0.9,0,1.2-0.3c1.2,0,2.3-0.3,3.5-0.3h1.4
	c1.4,0,2.9-0.3,4.6-0.3h3.7c1.1,0,2.1,0.1,3.2,0.3h0.6c2.3,0.3,4.6,0.6,6.9,1.2c33.7,7.2,57.8,37,57.9,71.4L868.8,492.4z
	 M418.9,60.1H872L768,366.9c-4.3,0.9-8.6,2.3-13,3.7L645.6,147.3L535.8,369.2c-4.3-1.4-8.9-2.3-13.5-3.2L418.9,60.1z M624.8,467.4
	c-5.5-27.1-19.3-51.3-38.9-69.1l59.6-120.4l60.2,123c-18.3,18.1-30.9,41.3-36,66.5L624.8,467.4z M480.5,421.9l4-0.9h0.9
	c1.2-0.3,2.3-0.3,3.5-0.6h1.2c1.2,0,2-0.3,3.2-0.3h11.2c1.2,0,2,0.3,2.9,0.3c0.6,0,0.9,0,1.4,0.3c1.2,0.3,2,0.3,3.2,0.6
	c0.3,0,0.6,0,1.2,0.3l4,0.9c1.4,0.3,2.6,0.6,3.7,1.2c0.3,0,0.6,0.3,1.2,0.3c0.9,0.3,2,0.6,2.9,1.2c0.3,0,0.6,0.3,0.9,0.3
	c1.2,0.6,2.3,0.9,3.5,1.4h0.3c1.3,0.5,2.6,1.2,3.7,2c1.4,0.6,2.6,1.4,3.7,2c0.3,0,0.3,0.3,0.6,0.3c1.2,0.6,2,1.4,3.2,2l0.3,0.3
	c3.5,2.6,6.6,5.5,9.8,8.3l0.3,0.3c2.9,3.2,5.8,6.6,8.1,10.4c7.7,11.8,11.8,25.6,11.8,39.8c0,40-32.6,72.6-72.6,72.6
	s-72.6-32.6-72.6-72.6c-0.3-33.7,23-62.2,54.7-70.3L480.5,421.9z M197,419.8c40,0,72.6,32.6,72.6,72.6S237.1,565,197,565
	s-72.6-32.6-72.6-72.6S157,419.8,197,419.8z M867.1,669.6c-6.3,36.9-29.1,69.1-62.5,88.4c-31.4,18.1-70,23.9-110.6,29.7
	c-22.2,3.2-45.5,6.6-68,12.1c-59.9,14.7-117.5,43.5-173.4,71.2c-71.4,35.4-138.8,68.8-201.4,68.8c-32.6,0-61.6-9.2-89.3-28.5
	c-63.4-43.8-60.2-125.9-52.7-170.8c6.9-42.1,26.2-81.5,44.6-119.2c1.2-2.3,2-4.3,3.2-6.6c6.3,2.3,13,4,19.9,5.2
	C166,680.9,197.1,743.9,257.6,775l10.9,5.8l11.8-4.3c50.4-17.9,97.1-46.9,138.3-85.8c22.8-21.2,42.9-45.1,59.9-71.2
	c6.6,1.2,13.2,1.4,19.9,1.4c59.9,0,110.3-41.2,124.7-96.5h48.4c14.4,55.6,64.8,96.5,124.7,96.5c22.9,0,45.4-6.2,65.1-17.9
	C868.9,624.8,871.2,647.1,867.1,669.6L867.1,669.6z"/>
</svg>
