<?xml version="1.0" standalone="no"?>
<!DOCTYPE svg PUBLIC "-//W3C//DTD SVG 20010904//EN"
 "http://www.w3.org/TR/2001/REC-SVG-20010904/DTD/svg10.dtd">
<svg version="1.0" xmlns="http://www.w3.org/2000/svg"
 width="820.000000pt" height="820.000000pt" viewBox="0 0 820.000000 820.000000"
 preserveAspectRatio="xMidYMid meet">

<g transform="translate(0.000000,820.000000) scale(0.100000,-0.100000)"
fill="#007FFF" stroke="none">
<path d="M1192 6544 c-18 -9 -43 -35 -56 -58 l-24 -41 -5 -1396 c-5 -1514 -7
-1445 50 -1499 49 -46 576 -341 621 -347 54 -7 119 24 152 74 l25 37 5 835 c5
816 5 837 25 871 12 21 39 45 65 58 86 45 81 47 635 -273 l500 -289 60 0 60
-1 490 284 c270 156 503 288 518 293 45 16 113 1 154 -35 64 -56 63 -49 63
-549 l0 -453 -638 -365 -637 -366 -2 -464 -3 -465 23 -40 c20 -36 85 -75 827
-500 794 -453 806 -460 860 -460 54 0 66 6 1055 574 550 315 1014 587 1032
604 23 21 36 46 43 81 8 36 10 320 8 941 l-3 890 -23 37 c-26 42 -91 78 -141
78 -39 0 -38 1 -351 -178 -264 -151 -302 -176 -319 -221 -6 -16 -11 -228 -13
-546 -4 -518 -4 -520 -26 -560 -13 -22 -37 -50 -55 -62 -98 -65 -1144 -657
-1173 -663 -19 -4 -49 -4 -68 0 -18 4 -163 81 -321 171 -262 150 -289 168
-312 207 -33 56 -29 134 9 184 19 24 157 109 499 305 584 336 534 305 559 352
20 40 20 51 20 1447 0 1403 0 1406 -21 1443 -33 59 -64 76 -139 76 l-65 0
-930 -535 c-891 -512 -932 -534 -980 -534 -48 0 -94 25 -980 535 -889 510
-932 534 -985 537 -36 1 -66 -3 -88 -14z"/>
<path d="M6865 6541 c-22 -11 -155 -88 -295 -173 -237 -143 -257 -156 -277
-198 -23 -43 -23 -51 -23 -380 0 -305 2 -339 19 -376 25 -55 79 -88 146 -88
47 0 67 10 315 158 146 87 279 172 297 188 18 18 36 48 42 74 15 58 15 635 0
689 -19 71 -91 125 -164 125 -11 0 -38 -9 -60 -19z"/>
</g>
</svg>
