<svg id="Layer_1" data-name="Layer 1" xmlns="http://www.w3.org/2000/svg" viewBox="0 0 280 300"><defs><style>.cls-1{fill:#00678f;}.cls-1,.cls-2{fill-rule:evenodd;}.cls-2{fill:#e38d1a;}</style></defs><title>mysql logo</title><path class="cls-1" d="M63.24,182.76h5.07V162.69l7.91,17.5c.9,2.1,2.19,2.88,4.68,2.88s3.7-.78,4.64-2.88l7.87-17.5v20.07h5.1V162.69a3.07,3.07,0,0,0-2.41-3.39c-3.86-1.17-6.43-.16-7.6,2.46l-7.76,17.3-7.48-17.3c-1.13-2.62-3.74-3.63-7.64-2.46a3.07,3.07,0,0,0-2.38,3.39v20.07Z"/><path class="cls-1" d="M102.72,166.43h5.11v11c0,.62.19,2,3,2.07,1.44,0,11,0,11.07,0V166.35H127V184.4c0,4.44-5.49,5.42-8.06,5.45H102.84v-3.39h16.1c3.27-.35,2.88-2,2.88-2.53v-1.32H111c-5,0-8.26-2.26-8.3-4.8,0-.23.12-11.3,0-11.38Z"/><path class="cls-1" d="M212.23,153.65a18,18,0,0,0-7.56,1.09c-.58.23-1.52.23-1.59,1,.31.32.35.82.62,1.25a9.26,9.26,0,0,0,2,2.38c.81.62,1.63,1.25,2.49,1.79,1.52.94,3.24,1.48,4.72,2.42.85.54,1.71,1.25,2.57,1.83.43.31.7.82,1.25,1v-.11c-.28-.35-.36-.86-.63-1.25s-.78-.74-1.17-1.13a18.45,18.45,0,0,0-4.05-3.94c-1.25-.85-4-2-4.48-3.47l-.08-.07a15.46,15.46,0,0,0,2.69-.63c1.32-.35,2.53-.27,3.9-.62.62-.16,1.24-.35,1.87-.55v-.35c-.7-.7-1.21-1.63-1.95-2.3a52.36,52.36,0,0,0-6.43-4.79c-1.21-.78-2.77-1.29-4.06-2-.46-.23-1.24-.35-1.52-.74a15.61,15.61,0,0,1-1.59-3c-1.13-2.14-2.22-4.52-3.2-6.78a40.48,40.48,0,0,0-2-4.44c-4-6.63-8.38-10.64-15.08-14.58a18.73,18.73,0,0,0-5-1.6l-2.92-.15a16.27,16.27,0,0,1-1.79-1.37c-2.22-1.4-7.95-4.44-9.59-.43-1,2.54,1.56,5,2.46,6.32a17.86,17.86,0,0,1,2,2.92c.28.66.35,1.36.63,2.07a46.2,46.2,0,0,0,2,5.22,18.33,18.33,0,0,0,1.45,2.41c.31.43.85.63,1,1.33a11,11,0,0,0-.9,2.92c-1.4,4.41-.85,9.86,1.13,13.1.63,1,2.11,3.12,4.1,2.3,1.75-.7,1.36-2.93,1.87-4.87.11-.47,0-.78.27-1.1v.08c.54,1.09,1.09,2.15,1.6,3.24a22.21,22.21,0,0,0,5.06,5.22c.94.7,1.68,1.91,2.85,2.34v-.12h-.08a4,4,0,0,0-.9-.78,18.4,18.4,0,0,1-2-2.34,50.28,50.28,0,0,1-4.37-7.09c-.62-1.21-1.17-2.53-1.67-3.74-.24-.47-.24-1.17-.63-1.4a14.43,14.43,0,0,0-1.87,2.65c-.74,1.67-.82,3.74-1.09,5.88-.16,0-.08,0-.16.08-1.24-.31-1.67-1.6-2.14-2.69a16.89,16.89,0,0,1-.35-10.41c.27-.81,1.44-3.39,1-4.17-.24-.74-1-1.17-1.45-1.75a16.51,16.51,0,0,1-1.4-2.49c-.94-2.19-1.4-4.6-2.42-6.79a20.69,20.69,0,0,0-1.94-3,18.82,18.82,0,0,1-2.15-3c-.19-.42-.47-1.13-.15-1.59.07-.32.23-.43.54-.51.51-.43,2,.12,2.46.35a19.66,19.66,0,0,1,3.86,2c.54.39,1.13,1.13,1.83,1.32h.82c1.24.28,2.65.08,3.81.43a25,25,0,0,1,5.62,2.69,34.66,34.66,0,0,1,12.16,13.33c.46.9.66,1.71,1.09,2.65.82,1.91,1.83,3.86,2.65,5.73A25.66,25.66,0,0,0,199,146c.59.82,2.93,1.25,4,1.68a27,27,0,0,1,2.69,1.09c1.32.82,2.65,1.75,3.9,2.65.62.47,2.57,1.44,2.68,2.22Z"/><path class="cls-1" d="M172.48,119.78a5.93,5.93,0,0,0-1.59.2v.08H171a12.16,12.16,0,0,0,1.25,1.59c.31.63.58,1.25.9,1.87l.07-.07a2.2,2.2,0,0,0,.82-2c-.23-.28-.27-.55-.46-.82s-.75-.59-1.06-.9Z"/><path class="cls-2" d="M130.86,182.76h14.65a11.17,11.17,0,0,0,4.68-1c2.22-1,3.27-2.38,3.27-4.17v-3.74c0-1.45-1.2-2.81-3.62-3.75a13,13,0,0,0-4.33-.74h-6.15c-2.07,0-3-.62-3.32-2a2.53,2.53,0,0,1,0-.47v-2.3a2.27,2.27,0,0,1,0-.43c.28-1.05.82-1.32,2.62-1.52h15V159.3H139.4a13.31,13.31,0,0,0-4.14.43c-3,.93-4.32,2.42-4.32,5v3c0,2.3,2.57,4.25,6.94,4.71.46,0,1,0,1.48,0h5.26a2.28,2.28,0,0,1,.54,0c1.6.16,2.3.43,2.77,1a1.18,1.18,0,0,1,.39.93v3a1.72,1.72,0,0,1-.7,1.21,3.64,3.64,0,0,1-2.18.7c-.2,0-.32,0-.51,0H130.86v3.39Z"/><path class="cls-2" d="M185.19,176.88q0,5.2,7.83,5.8c.51,0,1,.08,1.48.08h13.25v-3.39H194.39c-3,0-4.1-.74-4.1-2.53V159.3h-5.1v17.58Z"/><path class="cls-2" d="M156.7,177V165c0-3.08,2.18-4.95,6.43-5.53.47,0,.94-.08,1.36-.08h9.67c.51,0,.93,0,1.44.08,4.25.58,6.39,2.45,6.39,5.53V177c0,2.5-.89,3.82-3,4.72l5,4.52H178.1L174,182.61l-4.09.23h-5.46a12.06,12.06,0,0,1-3-.39c-3.23-.9-4.83-2.61-4.83-5.42Zm5.49-.27a3.06,3.06,0,0,0,.12.51c.27,1.4,1.6,2.18,3.63,2.18h4.59l-4.2-3.82h5.88l3.7,3.35a2.45,2.45,0,0,0,1.29-1.64,2.11,2.11,0,0,0,0-.5V165.26a1.79,1.79,0,0,0,0-.46c-.27-1.33-1.6-2.07-3.59-2.07h-7.67c-2.26,0-3.75,1-3.75,2.53v11.5Z"/><path class="cls-2" d="M210.09,182.8h.74V180h1v-.59h-2.73V180h1v2.84Zm5.65,0h.7v-3.43h-1.05l-.86,2.34-.93-2.34h-1v3.43h.66v-2.61h0l1,2.61h.51l1-2.61h0v2.61Z"/></svg>