<svg width="207" height="207" xmlns="http://www.w3.org/2000/svg" version="1.1">

 <g>
  <title>Layer 1</title>
  <rect id="svg_1" fill="#ffffff" rx="15%" height="207" width="207"/>
  <g stroke="null" fill-rule="evenodd" fill="none" id="Page-1">
   <g stroke="null" fill-rule="nonzero" fill="#000000" id="Black-Next.js">
    <g stroke="null" id="next-black">
     <g stroke="null" id="EXT-+-Type-something">
      <path stroke="null" id="EXT" d="m64.73984,77.41573l31.6032,0l0,2.58466l-28.70625,0l0,19.453l26.99441,0l0,2.58467l-26.99441,0l0,21.35748l29.03545,0l0,2.58467l-31.9324,0l0,-48.56446zm34.43432,0l3.35784,0l14.87984,21.35748l15.20904,-21.35748l20.68678,-27.12892l-33.98646,50.73097l17.51344,24.96241l-3.48952,0l-15.93328,-22.71783l-15.99912,22.71783l-3.42369,0l17.64512,-24.96241l-16.46001,-23.60205zm38.91144,2.58466l0,-2.58466l36.01449,0l0,2.58466l-16.59169,0l0,45.97981l-2.89696,0l0,-45.97981l-16.52584,0z"/>
      <polygon stroke="null" points="25.202926635742188,77.41572570800781 28.824129104614258,77.41572570800781 78.75835418701172,154.30308532714844 58.1229248046875,125.98019409179688 28.2315673828125,81.08866119384766 28.09988021850586,125.98019409179688 25.202926635742188,125.98019409179688 " id="Type-something"/>
     </g>
     <path stroke="null" id=".JS" d="m173.80821,122.61553c0.59892,0 1.03577,-0.47188 1.03577,-1.08169c0,-0.60982 -0.43685,-1.0817 -1.03577,-1.0817c-0.59187,0 -1.03577,0.47189 -1.03577,1.0817c0,0.60982 0.4439,1.08169 1.03577,1.08169zm2.84661,-2.84581c0,1.80041 1.26125,2.97649 3.10027,2.97649c1.95881,0 3.14255,-1.21237 3.14255,-3.31769l0,-7.41218l-1.57832,0l0,7.40492c0,1.16882 -0.57073,1.79316 -1.57832,1.79316c-0.9019,0 -1.51491,-0.58078 -1.53604,-1.44469l-1.55014,0zm8.30731,-0.09437c0.11274,1.87301 1.62764,3.07086 3.88239,3.07086c2.40975,0 3.91761,-1.25593 3.91761,-3.25962c0,-1.57535 -0.85962,-2.44652 -2.94526,-2.94744l-1.12032,-0.28313c-1.32466,-0.31943 -1.86016,-0.74775 -1.86016,-1.49551c0,-0.94377 0.83143,-1.56084 2.07859,-1.56084c1.18374,0 2.00108,0.60255 2.14905,1.5681l1.53604,0c-0.0916,-1.76411 -1.59946,-3.00552 -3.66396,-3.00552c-2.21951,0 -3.69918,1.24141 -3.69918,3.10716c0,1.53906 0.83848,2.45378 2.67751,2.89663l1.31056,0.32669c1.3458,0.32669 1.93767,0.80583 1.93767,1.6044c0,0.92925 -0.93008,1.6044 -2.19837,1.6044c-1.35989,0 -2.30406,-0.6316 -2.43794,-1.62618l-1.56423,0z"/>
    </g>
   </g>
  </g>
 </g>
</svg>