<svg id="Layer_1" data-name="Layer 1" xmlns="http://www.w3.org/2000/svg" viewBox="0 0 280 300"><defs><style>.cls-1{fill:#010101;}</style></defs><title>Nextjs Logo</title><path class="cls-1" d="M97.66,126.86H127.9v2.4H100.43v18.1h25.83v2.4H100.43v19.87h27.79V172H97.66Zm33,0h3.22l14.24,19.86,14.55-19.86,19.8-25.23-32.53,47.18L166.66,172h-3.34L148.07,150.9,132.76,172h-3.28l16.89-23.22Zm37.24,2.4v-2.4h34.47v2.4H186.44V172h-2.77V129.26Zm-108-2.4h3.46l47.79,71.51L91.32,172,62.71,130.28,62.59,172H59.82ZM202,168.9a1,1,0,0,1,0-2,1,1,0,0,1,0,2Zm2.73-2.65h1.48a1.36,1.36,0,0,0,1.47,1.35c1,0,1.51-.58,1.51-1.67V159h1.51v6.9a2.79,2.79,0,0,1-3,3.08A2.71,2.71,0,0,1,204.77,166.25Zm7.95-.08h1.5c.12.92,1,1.51,2.33,1.51s2.1-.63,2.1-1.49-.56-1.19-1.85-1.5l-1.26-.3c-1.76-.41-2.56-1.26-2.56-2.69,0-1.74,1.42-2.89,3.54-2.89s3.42,1.15,3.51,2.79h-1.47a1.86,1.86,0,0,0-2.06-1.46c-1.19,0-2,.58-2,1.45,0,.7.51,1.1,1.78,1.4l1.07.26c2,.46,2.82,1.28,2.82,2.74,0,1.86-1.44,3-3.75,3C214.28,169,212.83,167.91,212.72,166.17Z"/></svg>