<svg xmlns="http://www.w3.org/2000/svg" fill="none" viewBox="0 0 24 24" id="Typescript-Icon--Streamline-Svg-Logos" height="24" width="24">
  <desc>
    Typescript Icon Streamline Icon: https://streamlinehq.com
  </desc>
  <path fill="#3178c6" d="M2.0859375 0.25H21.91405C22.928025 0.25 23.75 1.0719775 23.75 2.0859375V21.91405C23.75 22.928025 22.928025 23.75 21.91405 23.75H2.0859375C1.0719775 23.75 0.25 22.928025 0.25 21.91405V2.0859375C0.25 1.0719775 1.0719775 0.25 2.0859375 0.25Z" stroke-width="0.25"></path>
  <path fill="#ffffff" d="M14.067075 18.652975v2.535425c0.41235 0.211325 0.900075 0.369775 1.463075 0.475425 0.562975 0.10565 1.15635 0.15845 1.7802 0.15845 0.607875 0 1.185475 -0.058125 1.732575 -0.174325 0.547125 -0.116225 1.02695 -0.3077 1.4392 -0.574375 0.41235 -0.266775 0.738775 -0.6154 0.979375 -1.04595 0.2405 -0.430425 0.360775 -0.962575 0.360775 -1.596425 0 -0.459525 -0.068775 -0.86235 -0.206175 -1.208325 -0.137425 -0.345975 -0.3357 -0.653675 -0.594775 -0.923025 -0.25895 -0.269425 -0.569575 -0.511025 -0.931625 -0.725 -0.36215 -0.2139 -0.77055 -0.415925 -1.225225 -0.60605 -0.333025 -0.137425 -0.63165 -0.2707 -0.896025 -0.40015 -0.264275 -0.129425 -0.489 -0.261425 -0.673975 -0.396175 -0.18505 -0.134675 -0.3278 -0.277325 -0.428225 -0.427875 -0.100425 -0.15055 -0.15065 -0.320825 -0.15065 -0.511025 0 -0.174325 0.0449 -0.3314 0.134775 -0.471375 0.08985 -0.14 0.216825 -0.26015 0.380675 -0.3605 0.16385 -0.100425 0.3647 -0.178275 0.60265 -0.2338 0.237825 -0.05545 0.5022 -0.083175 0.792925 -0.083175 0.2115 0 0.43485 0.015875 0.670025 0.04755 0.235275 0.031675 0.47185 0.0805 0.709775 0.1466 0.23785 0.066 0.4691 0.149175 0.6938 0.2496 0.224625 0.100325 0.432175 0.21655 0.622475 0.34855v-2.369c-0.3859 -0.147875 -0.807525 -0.2575 -1.264775 -0.328825 -0.457225 -0.071325 -0.98195 -0.106925 -1.574025 -0.106925 -0.60265 0 -1.17355 0.0647 -1.71275 0.19415 -0.539225 0.129325 -1.013725 0.331375 -1.4234 0.606025 -0.4097 0.27475 -0.733475 0.624675 -0.9714 1.0499 -0.23785 0.4252 -0.356825 0.933575 -0.356825 1.5252 0 0.7553 0.218025 1.399725 0.65425 1.933225 0.436125 0.53345 1.09815 0.985075 1.9863 1.35485 0.348925 0.14265 0.67405 0.28255 0.975325 0.41995 0.301375 0.13735 0.561725 0.2799 0.7811 0.427775 0.2194 0.1479 0.392525 0.309 0.5194 0.483325 0.12685 0.174325 0.1903 0.372425 0.1903 0.5943 0 0.163675 -0.039675 0.315575 -0.118975 0.455575 -0.079225 0.1399 -0.199575 0.26145 -0.360775 0.364425 -0.161175 0.103 -0.362125 0.183525 -0.602625 0.241625 -0.240525 0.0581 -0.52205 0.0872 -0.84455 0.0872 -0.549775 0 -1.0942 -0.096375 -1.633425 -0.28925 -0.5393 -0.192775 -1.038875 -0.481925 -1.498775 -0.867575ZM9.841125 12.3435h3.260425v-2.08765H4.013675v2.08765h3.244525v9.295175h2.582925V12.3435Z" stroke-width="0.25"></path>
</svg>