<?xml version="1.0" encoding="utf-8"?>
<!-- Generator: Adobe Illustrator 23.0.1, SVG Export Plug-In . SVG Version: 6.00 Build 0)  -->
<svg version="1.1" id="Layer_1" xmlns="http://www.w3.org/2000/svg" xmlns:xlink="http://www.w3.org/1999/xlink" x="0px" y="0px"
	 viewBox="0 0 1000 1000" style="enable-background:new 0 0 1000 1000;" xml:space="preserve">
<style type="text/css">
	.st0{fill:#FCBD38;}
	.st1{fill:#F79933;}
	.st2{fill:#FED035;}
	.st3{fill:#EE6825;}
</style>
<g>
	<path class="st0" d="M223.47,621.13l-41.83,15.28l-2.23,124.42l144.78-52.89C274.5,691.3,238.25,661.96,223.47,621.13"/>
	<path class="st1" d="M245.36,489.53l-145.15,53.02l81.43,93.89l41.83-15.28C208.72,580.47,217.82,534.52,245.36,489.53"/>
	<path class="st2" d="M489.58,309.97C304.77,377.47,185.6,516.81,223.47,621.13l669.27-244.49
		C854.87,272.32,674.4,242.46,489.58,309.97"/>
	<path class="st3" d="M626.59,687.84c184.82-67.51,304.19-206.21,266.11-311.16L223.44,621.13
		C261.51,726.11,441.78,755.35,626.59,687.84"/>
	<path class="st1" d="M892.71,376.64L223.47,621.13c13.09,36.15,63.09,53.95,133.19,53.95c68.37,0,155.88-16.91,247.11-50.23
		C788.59,557.34,918.59,448.01,892.71,376.64"/>
	<path class="st0" d="M759.52,322.72c-68.34,0-155.88,16.91-247.11,50.23c-184.82,67.51-314.82,176.81-288.94,248.17l669.27-244.49
		C879.62,340.5,829.65,322.72,759.52,322.72"/>
	<g>
		<path class="st3" d="M722.54,767.44c-19.7,0-48.74-17.77-86.35-52.86c-44.49-41.5-95.42-102.29-143.49-171.16
			c-48.04-68.87-87.51-137.71-111.16-193.89c-25.75-61.2-29.44-98.8-10.93-111.83c4.29-2.92,9.37-4.42,14.55-4.29
			c15.05,0,44.42,11.2,98.67,64.62l1.2,1.16l-0.17,1.66c-0.37,3.85-0.7,7.71-1,11.53l-0.6,7.54l-5.32-5.35
			c-58.47-58.9-84.19-65.25-92.56-65.25c-2.39,0-4.29,0.47-5.65,1.43c-8.04,5.65-8.57,33.29,16.41,92.59
			c23.22,55.15,62.13,122.96,109.54,190.93c47.44,68.01,97.61,127.87,141.33,168.64c47.11,43.95,68.34,48.7,75.28,48.7
			c2.39,0,4.32-0.5,5.78-1.53c8.47-5.95,8.47-35.55-19.37-99.4l-1.3-2.92l2.79-1.53c2.79-1.53,5.51-3.02,8.04-4.49l3.36-1.89
			l1.56,3.52c19.73,45.25,38.21,102.76,13.99,119.77C732.87,766.08,727.76,767.58,722.54,767.44L722.54,767.44z M722.54,760.47v3.49
			V760.47z"/>
		<path class="st3" d="M631.08,685.91l-0.27,3.46c-4.68,57.81-16.98,127.31-49.07,130.13c-0.66,0.07-1.33,0.07-1.96,0.07
			c-21.79,0-42.43-31.23-61.26-92.79c-17.87-58.27-31.73-136.48-39-220.23c-7.31-83.75-7.21-163.19,0.3-223.69
			c8.17-65.91,23.72-100.33,46.25-102.33c0.66-0.07,1.36-0.1,2.03-0.1c15.81,0,39.63,17.91,64.02,101.3l-15.91,3.06
			c-8.14-27.84-17.01-50.5-25.81-66.11c-8.14-14.39-16.08-22.33-22.29-22.33c-0.2,0-0.4,0-0.63,0.03
			c-9.77,0.86-23.99,24.52-31.89,88.44c-7.38,59.4-7.48,137.67-0.27,220.33c7.21,82.69,20.83,159.73,38.37,216.94
			c7.84,25.61,16.45,46.74,24.92,61.06c7.77,13.22,15.32,20.5,21.2,20.5c0.2,0,0.4,0,0.6-0.03c9.34-0.8,26.94-25.45,34.35-112.13
			L631.08,685.91z"/>
	</g>
</g>
</svg>
