<?xml version="1.0" encoding="utf-8"?>
<!-- Generator: Adobe Illustrator 23.0.1, SVG Export Plug-In . SVG Version: 6.00 Build 0)  -->
<svg version="1.1" id="Layer_1" xmlns="http://www.w3.org/2000/svg" xmlns:xlink="http://www.w3.org/1999/xlink" x="0px" y="0px"
	 viewBox="0 0 1000 1000" style="enable-background:new 0 0 1000 1000;" xml:space="preserve">
<style type="text/css">
	.st0{fill:#010101;}
</style>
<g>
	<path class="st0" d="M868,327.6c-2.5,11.3-6.5,19.7-12,25.3l-3.9-2.5c4.2-10.7,6.2-16.9,6.1-18.5l-1.1-1.7
		c-1.4,0.1-3.3,3.9-5.6,11.3l-2,0.1c-0.1-1.3-0.5-2.5-1.1-3.6l-0.9,0.1L804,452.4c-3,10.1-5.7,15.7-8.1,16.8c0.1,1.1,0.8,1.7,2,1.5
		c0.4,5-0.8,9.8-3.4,14.6c-7.9,22.5-13,34.9-15.7,37.1l1.7,10.7c0.1,1.1-0.4,1.9-1.7,1.9l-1.9,0.1c-0.3-2.9-1.4-4.3-3.3-4.2
		l-0.9,0.1c-2.3,3.7-4.2,8.1-5.4,13l1.9-0.1c2.5-1.5,3.6-3.4,3.4-5.7l3.7-0.3l2,0.8c-1.7,2.6-2.5,4.8-2.3,6.4l0.9,1.7l-2.3,5.6
		l0.1,0.9c2.5-0.1,4.9,0.6,7,2c2-0.3,3.9-1,5.6-2.2c7.9-0.3,15.7-0.4,23.6-0.3l6.8-2.3l16.9-0.4l2.9-0.3l1.5-1.1l0.1,0.9
		c7.4-0.6,8.1-0.1,14,0.6l0.1,0.9l-4.2,0.3l0.1,1.7c1.2-0.1,2.3-0.5,3.3-1.2c1.1-0.1,1.7,0.4,1.9,1.7c-1.7,0.1-3.6,0.6-5.7,1.2
		l-1.9-0.6c-2.9,0.8-2.3,0.9-4.2,1.1l-2.9-0.6c0,0.4-0.1,0.8-0.6,0.9c0.1,1.1,0.6,1.7,1.7,1.5l3.6-0.3l-1.5-0.6
		c0,0.4,0.3,0.8,0.9,0.8l15.4-1.4l5.9-1.2c0,0.4,0.3,0.8,0.8,0.8l2.8-1.1l5.3-0.4c4.2-0.3,4-0.6,12.9-2c0-0.4,0.1-0.8,0.6-0.8v0.8
		l18.9-3.9l-0.8-1.9c-4.8,1.1-4.7,0.4-7.1,0.8l-12.9,0.6l-0.1-0.9l7.1-0.9l2.6-0.1l1.4-1.1l0.1,0.9c10.1-0.9,13.7,1.7,60.7-8.2
		c2.5-0.1,2.3-2.3,3.9-6.7c-0.9,0-1.7-0.2-2.5-0.6c-3.9,1.5-5.9,0.8-13.4,2c-0.6,0-1.1-0.4-1.4-1.7v-0.8l7.1,0.3
		c1.2-0.1,4-0.3,7.8-2.5c0.8,0.4-0.6,0.9,0.1,0.8l1.2-0.1c0.8,0,1.1-0.6,1.1-1.9l-0.8-1.7c-4.8,0.4-7.1,0.6-11,2.8l-0.1-0.9
		l-5.9,0.6c-0.1-1.9-0.6-2.6-1.4-2.6l-3,0.3c-3.6,0.3-5.3,0.1-7,1.5c0-0.6-0.3-0.9-0.6-0.9l-3.4,0.3l-2,1.1c0-0.6-0.3-0.9-0.6-0.9
		l-1.2,1.1l-0.1-0.9l-4.7-0.3l-1.1,0.1l0.1,1.7l2.5,0.6l2.2-0.1c0.8,0.4,1.7,0.6,2.6,0.6l2-0.9v0.8c-11,2.8-11,2.2-18.6,3.6
		c-0.9-0.6-1.5-0.8-1.9-0.8c-0.8,0.8,0.9,0.1,0.4,0.1c-1.2,0.1-1.9-0.4-2-1.5l3.9-0.4c0.3,0,0.4,0.3,2.6,0.8c3-1.5,3.3-2.2,5-2.3
		l-0.1-1.7c-10.9,2.2-6.5,0.8-20.2,1.9h-0.6l-0.1-1.7c17.5-2.2,11.6-0.9,17.5-2.6c0,0.6,0.3,0.9,0.6,0.9c0.6-0.6,1.5-1.1,2.5-1.1
		l1.2-0.1c6.1-0.4,8.2,0.8,20.3-2.6v0.8l2-0.9l1.9-0.1c-0.1-1.9,2.6-2,3.4-2.2l-0.1-1.9c-21.3,4.3-26.9,3-32.8,4.8v-0.8
		c-5.6,1.1-5.7,0.4-7.1,0.6c-0.4,0-1.1,0.4-1.7,1.1c0-0.6-0.3-0.9-0.8-0.9c-0.9,0-0.4,0.3-1.2,1.1l1.2-1.1l-18.5,2.9
		c0-0.4-0.3-0.8-0.8-0.8c-9.3,2-6.8,2.3-19.4,3.4c-0.6,0-1.4,0.3-2.3,0.9c0-0.4-0.3-0.8-0.9-0.8l-7.8,0.6l-5.1,1.2
		c0-0.4-0.3-0.8-0.9-0.8c-2.9,0.8-5.4,1.2-7.4,1.4H840c-1.2,0.1,0.6-0.3-0.3-0.8l-1.5,0.9c-2.3,0.1-1.1-0.1-8.8,0l-13.7,2l-5.1-0.3
		c0,0.4-0.1,0.8-0.8,0.9c-5.7-0.8-8.7-1.7-8.8-2.8c0.8-5.4,2-8.2,4-8.5l0.9-0.1l-0.9,1.9l0.9-0.1c1.9-0.9,2.6-1.9,2.6-2.8l-0.1-1.9
		l-1.9,0.1l-0.1-1.7c-0.1-1.4,0-2.5,0.4-3.6l4.2-6.7l0.1,1.7l2-0.1l-0.1-1.7l-1.1-1.7c1.4-1.2,2.6-2,3.6-2l-0.1-0.9l-2.6,0.1
		l-0.1-2.6c5.3-11.2,7.9-17.8,7.8-19.4l1.9,0.8c1.2-0.1,1.9-0.8,1.7-2l-1.9,0.1v-0.8c-0.1-1.3,0.1-2.6,0.6-3.7
		c2.9-2.9,4.2-6.1,3.9-9.3c0.6,0,0.9,0.3,0.9,0.9c2.5-1.4,4.3-5.1,5.7-11.3c4.3-7.9,10.4-23.7,18.6-47.3
		c15.5-41.7,14.9-46.1,17.1-56l-1.9,0.1c0.1,1.2-0.1,2.5-0.8,3.6c-0.9-0.4-1.9-0.7-2.9-0.8v-0.8c-0.3-3.6,1.2-7.9,4.7-13h0.8
		l1.5,6.1l1.9-0.1c0.4-2.5,0.8-4.9,1.4-7.3c-0.1-0.9-0.8-1.4-2.2-1.5l-1.7,1.1c-0.1-1.2,0-4.5,0.1-9.9L868,327.6z M845.6,354.5
		l0.9-0.1c-1.4,2.5-2.5,3.9-3.6,4l-0.1-2.6C843.6,355.6,844.6,355.3,845.6,354.5L845.6,354.5z M837.9,373.1c1.9-7.6,3.7-12,5.4-13
		l0.1,0.9c-0.9,7.1-2.5,10.7-4.7,11l0.3,4.5c-1.7,2.3-2.5,4.2-2.3,5.6l-0.9,0.1l-0.4-6.2C836.3,375.9,837.2,375,837.9,373.1
		L837.9,373.1z M834.9,383.2c0.1,1.1-0.6,3.6-2,7.4l-0.9,0.1l-0.1-2.6c1.1-3,2.2-4.7,3-4.8L834.9,383.2z M783.9,496.2l0.9,1.7
		c1.4-0.1,2-0.8,1.9-1.9l-0.1-0.9l-0.9,0.1L783.9,496.2z M808.4,516.5v0.8c1.4-0.1,2.8-2.6,4-7.4l-1.9-0.6c-1.5,4.2-2.2,6.5-2.2,7.4
		L808.4,516.5z M965.5,522v0.8l-1.5,1.9l2.9-1.1h0.3l-0.1-1.7h-0.6l-1.1,0.9c0-0.4,3.3-1.4,0.8-1.9
		C965.6,521.7,966.8,521.8,965.5,522L965.5,522z M971.5,527.6l4.2-0.3c-0.1-1.1-2.8-1.4-3.7-1.4h-0.8L971.5,527.6z M897.2,529.1
		l1.2,1.5c0-0.4,0.1-0.8,0.6-0.8l0.9,1.7l-3.9-0.4C895.8,529.9,896.3,529.3,897.2,529.1L897.2,529.1z M884.4,530.5
		c1.4-0.1,2.3,0.8,2.3,2h-4.3v-0.8C882.9,531.6,883.7,531.3,884.4,530.5L884.4,530.5z M894.4,530.1l0.1,0.9l-3.6,0.3l-0.1-0.9
		L894.4,530.1z M858.4,533.8c0,0.4,0.3,0.8,0.9,0.8l7.9-1.5c0.9-0.1,1.4,0.4,1.5,1.5l-16,1.4l1.5,0.8l-0.1-0.9l-6.1,0.4l-0.1-0.9
		l5.4-0.4L858.4,533.8z M874.8,532.4v0.8c-0.4,0,1.5,0.1,0.6,0.9c-3.4-0.3-3.6-0.6-6.1-0.4v-0.8L874.8,532.4z M878.8,531.9v0.8
		l-2.9,0.3v-0.8L878.8,531.9z M779.5,547.8l0.1,2.6c-0.9,0.1-1.7-0.4-2-1.7v-0.8L779.5,547.8z M912.4,545.4l0.1,1.7l3-0.3l-1.2-0.8
		l0.1,0.9l3-1.2c21.3-2.3,23.7-1.4,23.4-3.9v-0.8c-21.4,4.8-24.2,3.9-28.7,4.3L912.4,545.4z M945.6,542.5l3,0.6l-0.1-1.7l-3-0.6
		L945.6,542.5z M853.7,548.5c0.9,0.4-1.1,0.9,0.1,0.8l10.9-0.9l0.1,0.9c-3,0.3-5.1,0.8-5.7,1.4c0-0.6-0.3-0.9-0.9-0.9l-4.7,0.4
		l-0.1-0.9C854.6,549.1,852.8,549.1,853.7,548.5L853.7,548.5z M904,547.3l0.9,1.7c3.6-0.8,1.5-0.6,2.5-1.4c0,0.6,0.3,0.9,0.6,0.9
		l2.5-0.1l-0.1-1.9l-6.5-0.1L904,547.3z M842.5,554h-0.6l-0.1-1.7h0.6L842.5,554z M794,559.9l0.1,0.9l28.5-2.3l-0.1-1.7l-22.8,1.9
		l-4.8-0.6L794,559.9z M825.8,558.2h0.3l-0.1-1.7h-0.3L825.8,558.2z M391.2,408.2L360,448.1c-8.2,8.5-12.3,13.7-11.8,15.4
		c-2.2,1.4-3,2.8-2.8,4.3c-0.6,0.1-1.1-0.1-1.2-0.8c-3.6,5.7-8.7,9.3-15.7,11l-7.4,1.7c-0.9,0.1-1.4,0.9-1.4,2.2l0.1,0.9l2.8-0.6
		l0.1,0.8l-6.2,2.3l-11,2.5l-5.7,0.3c-0.8,0.8,4.5-0.1,2.5,0.4l-7.1,1.7c-4.3,1.1-6.8,0.6-7.1-1.1l-0.8,0.1c0.4,1.7,0,2.8-1.2,3
		l1.4-0.3l-0.6-2.6l-13,3l1.4,0.6c-0.1-0.6-0.8-0.8-2-0.4l-1.7,1.4l-2-0.4c-1.9,1.1-3,1.7-3.4,1.7l-2-0.4c-5.4,3-1.4,3-1.7,3
		l0.4,1.7l3-0.8l4.8-0.3l-0.4,2c-17.8,4.7-4.8,2-9.6,3l-0.9,0.1l0.4,1.7l2.8-0.6l0.1,0.9c-3.6,0.8-5.6,1.5-6.2,2.3l-0.1-0.9
		c-4.7,1.1-9.3,4.7-14,10.4c0.8,3.4-9.3,7.6,38.2-3.4l5.6-0.3c-0.1-0.6,0.1-0.9,0.8-1.1c5.3-0.6,2.8,0.3,6.1-0.4l10.4-2.3l-2.2,1.2
		c-0.1-0.4,0.1-0.8,0.6-0.9c1.2,0.3,2.5,0.1,3.9-0.1l0.6,2.6l-40.5,64.3l-9,11.2l-4.3,14.7l0.8-0.1l4.3-1.9l-1.4,5.7l0.4,1.7
		l1.2,1.5c-0.6,0.1-0.8,0.4-0.6,1.1v0.9l1.9-0.4c2.6-2.3,3.7-4.5,3.4-6.4c2.9,0.4,4.8,0.6,5.7,0.4l0.1,0.9c-1.7,0.4-2.6,1.9-2.8,4.2
		l0.1,0.9l0.9-0.1c14.7-16,50.6-70.8,79.5-108c-0.9-4,14.1-9.6,45.2-16.8l0.9-0.1c1.1,4.8-1.2,16.6-7.1,35.4l-5.4,18.5l-7,24.4
		l-11,36c-7.1,18.5-12.6,37.9-16.3,58.4c0.6-0.1,1.7,0,2.9,0.3l1.5-1.4c0.1,0.6,0.4,0.8,1.2,0.8l-0.6-2.6l4.8-0.1
		c1.4-0.3,2.6-2.2,3.6-5.4c-0.1-4.8,0.8-7.4,2.9-8.1l5.4-17.5c2.8-11.5,4.8-17.8,6.2-19.7c4.2-14.9,7.1-22.7,9.2-23.1l0.4,1.9
		l-2.9,7.9c-5.3,23.4-10.7,42.1-16.1,55.7l1.5,6.8l0.9-0.1c13.2-28.2,32-84.1,56.5-167.6c0.6-7,4.4-13.4,10.4-17.1l-1.4-1.4
		l-0.1-0.8c2.8-0.6,4.8-1.7,5.9-3.3c-0.1-0.6-2.6-1.5-7.4-2.8l14.6-62.4c4.3-18.6,7.4-34.9,8.8-49.1l-0.1-0.9
		c-2.9-1.9-5.9-4.5-8.5-7.9v-3.7l-0.1-0.8l-0.8,0.1c-9,13.7-27,37.4-53.5,71.4L391.2,408.2z M411.8,422.4c0.8,3.3-0.4,9.3-3.6,18.1
		c-0.9,11.2-5,17.5-12,19.2l-0.1-0.9l-6.2,2.3l-2.8,0.6c-1.4,0.3-2.6,0.3-3.9-0.1l-0.6-2.5c-0.1-0.9,8.7-13.4,27-37.1L411.8,422.4z
		 M397.6,461l2-0.4l0.4,1.7l-16.3,4.8c-1,0.3-1.9,0.8-2.6,1.5c-0.1-0.6-1.4-0.6-3.9-0.1C376.8,466.8,383.6,464.3,397.6,461
		L397.6,461z M301.2,487.1l2.2-0.4l-0.4-1.9l-2.2,0.4L301.2,487.1z M329.4,479.7l0.4,1.7l-4.7,0.3l-0.1-0.9L329.4,479.7z
		 M275.1,497.5l0.1,0.9l-2.9,0.6l-0.1-0.9L275.1,497.5z M269.7,508.8l0.1,0.8l-3.6,0.8l-0.4-1.7L269.7,508.8z M278.2,507l0.1,0.8
		l-6.5,1.5l-0.1-0.8L278.2,507z M289.6,505.1l0.1,0.9l-17.1,3.9l-0.4-1.7c9.9-1.7,8.8-1.1,17.4-3L289.6,505.1z M375.1,485.3l1.4,1.5
		c-2,0.4-3.6,1.1-4.3,1.9l-2-0.3c-2.6,1.1-5.3,2-8.1,2.6l-1.9,0.4c-1.1,0.3-1.9-0.1-2.3-1.2l12.9-2.9L375.1,485.3z M384.2,483.2
		l9.2-2.2l0.1,0.9c-5,1.1-8.8,2.3-11.6,3.7l-0.1-0.9C382.5,484.6,383.3,484,384.2,483.2z M288,509.3l4.3-0.9l0.4,1.7
		c-1.9,0.4-0.4,0.4-2.8,1.5c-4.5,0.4-3.6-0.1-10.7,1.5l-0.1-0.9L288,509.3z M299.8,507.3c1.2-0.3,2,0.1,2.2,1.4l-2.6,0.6
		c-1.1,0.3-1.9-0.1-2.3-1.4L299.8,507.3z M251.2,605.4l0.1,0.9c1.2-0.3,1.7-0.9,1.4-2.2l-0.1-0.9
		C251.5,603.5,251.1,604.1,251.2,605.4z M254.9,620.9c0.3,1.1,0.9,1.5,2.2,1.2c1.2-0.3,1.7-0.9,1.4-2.2l-0.1-0.9l-1.9,0.4
		L254.9,620.9z M354,647.6c1.2-0.3,1.9,0.1,2.2,1.2l0.1,0.9l-3.6,0.8c0.3-1.2,0.3-2.2,0.1-2.8L354,647.6z"/>
	<path class="st0" d="M498,360.4c-8.8,6.3-18,12.1-27.5,17.4l0.1,1.7c0.6,0,1.5-0.4,2.8-1.2c1.2-0.1,1.9,0.4,2,1.5l1.7-0.9h0.8v0.8
		c0.1,0.9-6.4,5.9-19.1,14.9l0.9,1.9H459l-2-0.8c0,0.6-0.8,1.1-2.6,1.2v0.8l2,2.5c-1,0-2-0.3-2.9-0.8c-4.2,0.3-8.2,3.4-12.3,9
		l0.9,1.7c3.6-3.3,5.6-5,6.2-5l0.1,2.6c-0.6,0-1.5,0.4-2.8,1.2l2.3,3.3c4.1-4.5,8.7-8.5,13.8-11.8c2.5,0.8,3.9,1.5,3.9,2.3l1.9-0.1
		c14-10.4,27.6-17.5,41.1-22v1.7c-2.5,3.7-4.2,5.6-5.1,5.7c0.1,1.2,0.4,2.3,1.1,3.4c0.1,2.3-5.9,17.8-18.3,46.6
		c-28.2,66.6-52.1,115.9-71.4,147.9c0,0.6,0.4,1.5,1.2,2.6c4.8-1.1,7.8-2.3,9-3.4h0.8l0.1,1.7l2-0.1l1.7-0.9c0,0.4,0.6,0.8,1.9,0.6
		l0.1,1.9c0.1,1.7-0.9,4.3-2.9,8.1c-2,2.2-4.2,6.8-6.4,13.8l0.1,0.9l1.9-0.1c7.8-8.7,13.5-17.1,17.5-25.5
		c22.5-6.7,39.6-13,51.5-19.4c12.1-1.1,21.1-4.2,27.3-9.3l-0.1-0.9l-4.7,1.4l-0.9,0.1l-0.1-0.9c8.8-1.2,14.9-3.3,18.1-5.9
		c17.1-13.2,30-22.5,38.7-28c27-19.9,39.7-38.7,38.2-57.1c-0.1-1.9-6.1-9.3-17.8-22.3c-0.1-2.5,3.9-6.1,12.1-10.7l23.6-20.5
		c5.3-6.7,8.4-17.5,9.3-32.6l-0.3-3.4c-0.9-10.4-8.5-18.8-22.8-25.3c-8.5-5.7-23.7-8.8-45.6-9.5c-17.8,1.2-41.4,7.8-70.8,19.2
		L498,360.4z M624.3,361.6l-0.9,1.9l-26.1-11C614.8,353.3,623.8,356.2,624.3,361.6L624.3,361.6z M518.5,434.3
		c1.9-9.8,3.9-15.2,6.1-16.5l19.7-44.1c-0.1-2.6,3.9-4.8,12.4-6.4l2.8-0.3l0.1,2.6c8.4-1.4,13.5-2.2,15.7-2.3
		c15.5-1.4,23.6,1.9,24.2,9.3l1.9-0.1l-0.3-4.2l1.9-0.1c4.5,2.5,6.8,5.4,7.1,9c0.1,2.5-1.1,5.6-3.7,9.3c-1.2,0.1-1.9-0.8-2-2.5
		l-1.9,0.1l-0.6,5.3c-7.9,12-13.5,17.8-17.1,18.3c-3,4.3-5.1,6.5-6.1,6.5c-2.5,2.9-9.2,8.1-20.2,15.1c-3.7,0.3-17.2,5.6-40.7,15.8
		c-1.2-0.5-2.5-0.6-3.7-0.4L514,447C513.7,443.7,515.2,439.6,518.5,434.3L518.5,434.3z M626.8,379.9l0.1,1.9c-0.9,0-2.6-2.8-5.4-8.4
		l-0.1-1.7C623.1,371.6,624.9,374.3,626.8,379.9L626.8,379.9z M454.8,401.1l0.1,0.9c-0.6,0-1.5,0.4-2.8,1.1h-0.8l-0.1-1.7
		L454.8,401.1z M511.8,399.7l0.1,2.6c-0.9,0-2,1.4-3.4,3.7l-0.1-1.7c1.5-2,2.3-3.6,2.3-4.7L511.8,399.7z M502.9,418l0.3,3.4
		l-0.9,0.1l-0.3-3.4L502.9,418z M500.7,424.3c-0.1,2.9-0.9,4.5-2.3,4.7l-0.9,0.1c1.1-2,1.5-3.6,1.4-4.7L500.7,424.3z M496.7,433.5
		l0.1,0.9l-1.5,2.8l-1.9,0.1l-0.1-0.9c1.9-0.1,2.8-1.1,2.6-2.9H496.7z M492.9,441.7l-0.6,4.5h-0.8l-0.3-4.5H492.9z M588.5,445
		l3.9,2.3c0.1,1.1-0.4,1.9-1.7,1.9c-1.7-1.1-2.9-1.5-3.9-1.4v-2.6L588.5,445z M513.6,454.9l0.1,1.7l-3.7,0.3l-0.1-1.7L513.6,454.9z
		 M574,461.3c2.6,1.2,3.9,2.3,4,3.3v0.8c-2.5,0.1-4.8-1.1-7-3.9L574,461.3z M496.3,480.4c10.4-0.9,27.2-5.9,50-14.9l5.7-0.4
		c11.5-0.9,20,1.2,25.8,6.7l0.3,3.4c-4.2,12.1-8.8,19.2-14,21.4l-23.4,18.9c-17.5,11.5-27,17.2-28.5,17.4
		c-28,15.4-45.3,23.3-52.1,23.9l-0.9,0.1C459.6,553.7,472,528.2,496.3,480.4L496.3,480.4z M521.6,470.3l0.1,0.9l-3.7,0.3l-0.1-0.9
		L521.6,470.3z M606.3,466.4l0.6,7.1c-0.9,1.7-1.7,2.6-2.6,2.8l-1.1-12.1c2,0.6,3,1.4,3,2.2H606.3z M463.1,527.2
		c-1.2,5.9-2.5,9-3.7,9v-0.8C458.9,532.7,460.1,529.9,463.1,527.2z M486.5,560.4c6.8-1.2,25.6-11,56.5-29.5l0.1,1.7
		c0,0.8-2.5,3-7.9,6.8c-15.5,7.8-24.8,12.9-27.6,15.5c-16.9,5.9-25.3,9.6-25.3,11c-15.1,5.9-24.8,10.4-29.6,13
		c-1.1,0.1-2.8-0.3-4.8-1.4c-0.3-3,1.1-5.4,4-7.4c2.5-0.2,5.1,0.2,7.4,1.1c2.8-1.4,7.6-2.9,14.6-4.8l-0.1-1.7l-5.7,0.4
		c0.6-1.1,6.1-3.6,16.1-7.6l2.8-0.3v0.8c-4.8,0.4-7.4,1.9-8.1,4.3c0.1,1.1,0.8,1.7,2,1.5c3.9-1.9,5.6-3.3,5.6-3.7L486.5,560.4z
		 M457.5,539.2v0.8c0.1,1.2-0.4,2-1.7,2l-0.1-0.9C455.6,540.3,456.2,539.5,457.5,539.2z M501.5,551.3c-2.2,0.1-6.4,2-12.6,5.4
		l-0.9,0.1l-0.1-1.7c4.5-0.4,8.5-2.2,11.6-5.3C500.8,549.7,501.4,550.2,501.5,551.3L501.5,551.3z M455.9,564l2.8-0.3l0.1,0.9
		c-0.6,0-1.5,0.4-2.8,1.1l-1.9,0.1C454,564.9,454.6,564.3,455.9,564L455.9,564z M437.1,574.4l1.9,0.8c-0.6,5.4-2.3,8.2-4.8,8.4
		c-2.2-0.9-4-1.4-5.7-1.2l-0.1-2.6c-0.1-0.9,0.4-1.5,1.7-1.9c1.2-0.1,1.9,0.8,2,2.5C435,576.5,436.8,574.4,437.1,574.4L437.1,574.4z
		 M132.8,352.6c-10.4,7.8-22.7,15.4-36.2,22.8l0.1,2.3c0.9,0,2-0.6,3.6-1.4c1.5-0.1,2.5,0.4,2.5,2l2.5-1.4l1.2-0.1l0.1,1.1
		c0.1,1.1-8.4,7.8-25.3,19.7l1.4,2.2l-1.2,0.1l-2.6-0.9c0,0.8-1.1,1.2-3.6,1.4l0.1,1.2l2.8,3c-0.9,0-2.2-0.1-3.7-0.8
		c-5.4,0.4-10.9,4.5-16.1,12l1.4,2.2c4.7-4.2,7.4-6.4,8.1-6.4l0.3,3.4c-0.8,0-2,0.6-3.6,1.4l2.9,4.3c5.4-6,11.6-11.1,18.5-15.4
		c3.4,0.9,5.1,1.9,5.1,3l2.5-0.1c18.1-13.5,36.2-23.1,54-29.2l0.1,2.3c-3.3,5-5.6,7.4-6.8,7.6c0.2,1.6,0.8,3.2,1.7,4.5
		c0.3,3-7.8,23.4-24.2,61.3c-37.7,87.7-68.9,152.6-94.2,194.8c0,0.8,0.6,2,1.4,3.4c6.2-1.5,10.4-2.9,12-4.5l1.4-0.1l0.1,2.3l2.3-0.1
		l2.5-1.4c0,0.8,0.9,1.1,2.5,0.9l0.1,2.3c0.1,2.3-1.1,5.9-4,10.7c-2.6,2.9-5.3,9-8.2,18.1v1.1l2.3-0.1
		c10.1-11.3,17.8-22.5,23.1-33.4c29.6-8.7,52.1-17.2,67.8-25.6c15.7-1.4,27.8-5.4,35.7-12.3l-0.1-1.2l-5.9,1.7l-1.4,0.1l-0.1-1.2
		c11.5-1.7,19.6-4.3,23.9-7.8c22.5-17.4,39.4-29.6,50.9-36.9c35.7-26.1,52.3-51.2,50.3-75.1c-0.1-2.5-8.1-12.3-23.4-29.3
		c-0.3-3.3,5.1-7.9,16-14.1l30.9-27.2c6.8-8.8,11-23.1,12.4-42.8l-0.4-4.7c-1.2-13.8-11.2-25-30.1-33.5
		c-11.2-7.6-31.2-11.6-60.1-12.1c-23.7,2.2-55.1,10.4-93.6,25.5L132.8,352.6z M299.3,354.7l-0.9,2.3l-34.4-14.4
		C286.9,343.5,298.7,347.5,299.3,354.7L299.3,354.7z M159.9,450.3c2.3-12.7,5-20,7.9-21.7l25.8-57.9c-0.3-3.6,5.1-6.4,16.5-8.2
		l3.7-0.3l0.3,3.3l20.6-2.9c20.5-1.7,31,2.3,32,12.4l2.3-0.1l-0.4-5.9l2.5-0.1c6.1,3.3,9.3,7.4,9.6,12.1c0.3,3.3-1.4,7.4-5.3,12.1
		c-1.5,0.1-2.5-0.9-2.6-3.3l-2.5,0.1l-0.6,7c-10.4,15.5-17.8,23.4-22.5,23.9c-4.2,5.7-6.8,8.7-7.9,8.8c-3.3,3.9-12.1,10.4-26.7,19.9
		c-4.8,0.4-22.7,7.4-53.5,20.8c-1.5-0.7-3.3-1-5-0.8l-0.1-2.2C153.6,462.7,155.5,457.1,159.9,450.3L159.9,450.3z M302.6,378.9
		l0.1,2.2c-1.2,0.1-3.6-3.6-7-11l-0.1-2.2C297.7,367.6,300.1,371.3,302.6,378.9z M76,406.5l0.1,1.1c-0.8,0-2,0.6-3.6,1.4l-1.2,0.1
		l-0.1-2.2L76,406.5z M150.9,404.6l0.3,3.4c-1.1,0.1-2.6,1.7-4.5,5l-0.1-2.3c2.2-2.6,3.3-4.7,3.3-6.1H150.9z M139.5,428.8l0.4,4.7
		l-1.2,0.1l-0.4-4.7L139.5,428.8z M136.5,437.2c-0.3,3.9-1.2,5.9-3.3,6.1H132c1.4-2.6,2.2-4.5,2-5.9L136.5,437.2z M131.4,449.3
		l0.1,1.1l-2.2,3.7l-2.3,0.1v-1.1c2.3-0.1,3.4-1.4,3.3-3.7L131.4,449.3z M126.1,460.2l-0.6,5.7l-1.2,0.1l-0.4-5.7L126.1,460.2z
		 M252,464.4l5.1,3c0.1,1.5-0.6,2.5-2.2,2.6c-2.2-1.4-3.9-2-5.1-2l-0.3-3.4L252,464.4z M153.4,477.6l0.1,2.2l-4.8,0.4l-0.1-2.2
		L153.4,477.6z M232.9,485.6c3.4,1.5,5.1,3,5.3,4.3l0.1,1.1c-3.3,0.3-6.2-1.4-9-5.1L232.9,485.6z M130.3,510.9
		c14-1.2,36-7.8,66-19.6l7.4-0.6c15.2-1.2,26.5,1.5,34,8.7l0.4,4.7c-5.6,16.1-11.8,25.5-18.5,28.2l-31,24.7
		c-23.1,15.2-35.7,22.8-37.4,23c-36.8,20.3-59.8,30.7-68.6,31.5l-1.4,0.1c1.2-4.3,17.5-37.9,49.1-100.9L130.3,510.9z M163.8,497.7
		l0.1,1.1l-5,0.4l-0.1-1.1L163.8,497.7z M275.3,492.8l0.8,9.2c-1.1,2.5-2.2,3.7-3.4,3.7l-1.4-16.1
		C273.9,490.6,275.1,491.7,275.3,492.8L275.3,492.8z M86.4,572.8c-1.5,7.9-3.3,12-5,12.1l-0.1-1.1C81,579.8,82.7,576.2,86.4,572.8
		L86.4,572.8z M117.4,616.6c9-1.7,33.7-14.7,74.3-38.7l0.1,2.2c0.1,0.9-3.4,3.9-10.4,9c-20.6,10.1-32.8,17.1-36.3,20.6
		c-22.3,7.8-33.4,12.6-33.2,14.4c-19.9,7.9-32.9,13.7-39.1,17.2c-1.4,0.1-3.6-0.4-6.4-1.7c-0.3-4,1.4-7.4,5.4-9.9
		c3.4-0.3,6.8,0.1,9.9,1.5c3.7-1.9,10.1-4,19.2-6.2l-0.1-2.3l-7.4,0.6c0.9-1.2,7.9-4.5,21.3-9.9l3.7-0.3l0.1,1.1
		c-6.2,0.4-9.8,2.5-10.4,5.7c0.1,1.4,0.9,2.2,2.5,2c4.5-3,6.8-4.8,6.8-5.3L117.4,616.6z M79.3,588.3l0.1,1.1
		c0.1,1.5-0.6,2.5-2.2,2.6l-0.1-1.1C76.9,589.6,77.7,588.6,79.3,588.3z M137.3,604.2c-2.9,0.3-8.4,2.6-16.6,7.4l-1.2,0.1l-0.1-2.3
		c5.8-0.4,11.2-2.9,15.2-7c1.7-0.3,2.6,0.4,2.8,1.9V604.2z M77.1,620.9l3.7-0.3v1.2c-0.9,0-2,0.6-3.6,1.4l-2.3,0.1
		c-0.1-1.1,0.4-2,2-2.5L77.1,620.9z M52.4,634.8l2.6,1.1c-0.9,7-2.9,10.4-6.5,10.9c-2.4-1.1-5-1.7-7.6-1.5l-0.3-3.4
		c-0.1-1.4,0.6-2.2,2.3-2.6c1.5-0.1,2.5,0.9,2.6,3.3C49.8,637.3,52.1,634.8,52.4,634.8L52.4,634.8z M740.9,329.8l-2-0.8l-33.1,5.1
		c-1.2-0.6-2.8-0.9-4.5-0.8c-1.9,0.1-4.7,0.8-8.8,1.9l-16,6.7l1.2,2c0.8,0,1.9-0.4,3.3-1.2l5.6,0.4l-0.8,5.3
		c-5.1,2.3-8.2,5.7-9,10.4c-7.8,3.4-11.6,5.9-11.6,7.4l0.1,0.9l1.2-0.1l2.2-1.1l2.5,2.9l0.3,4c0.1,1.2-13,29-39.4,83.2
		c-22.8,52.1-34.8,80.7-36,85.8c-7.8,2.2-12.4,5.4-13.7,9.6c0.1,1.4,2.5,2.2,7,2.6l0.1,2l-2,3.4l0.3,4c0.1,2.2,5.9,3.7,17.1,5
		c0-0.8,0.3-1.1,1.1-1.2c0.1,2.5-0.4,7.4-2.2,14.9l1.2-0.1c4.7-6.4,6.8-10.7,6.7-13.2l0.9-0.1c1.1-0.1,2.3,1.2,3.7,4
		c-1.4,0.6-6.4,11.8-14.7,33.7l1.2,2l1.2-0.1c10.4-26.2,16.9-40.8,19.6-43.6l70.6-7.1l2-1.2c0,0.8,0.4,1.1,1.2,0.9l2.2-0.1l2-1.2
		c0,0.8,0.4,1.1,1.2,0.9l25.3-2.2c6.7-0.6,9.9-2.6,9.6-6.1c-0.1-0.9,3.9-2,12-3c1.2,0,2.3,0.3,3.4,0.6c0-0.6,3.9-1.2,12-2
		c0.1-4.2,1.5-6.5,4-6.7v-2c-2.2,0.1-4.8,0.8-7.8,1.7c-5.3-0.3-8.7-0.6-10.1-1.2c-1.4,0.8-2.5,1.2-3.3,1.2l-17.8,0.6l-2.2,1.1
		c0-0.6-0.4-0.9-1.2-0.8l-0.9,0.1l-2.3,1.1c0-0.6-1.9-1.1-5.6-1.5l-2.2,1.2l-4.3,0.3l-0.1-1.1c22.7-2.5,34-5.6,33.7-9.3
		c1.4-0.1,2.2,0.6,2.3,2l6.7-1.7l-0.1-2l-54.3,1.5c0,0.8-0.3,1.1-1.1,1.2l-6.7-0.6c-1.5,0.1-3,0.6-4.2,1.5l-2.5-0.9
		c-6.8,0.6-12,1.4-15.4,2.5c-5.2-0.3-10.4-0.3-15.5,0.1l-12.3,1.1l-5.6-0.6c-0.3-3.6,6.7-21.3,21.1-53.1
		c4.2-10.7,8.1-17.4,11.6-19.9c0.8,0,1.9,0.1,3.4,0.8l8.7-2.9l4.5,0.8c7.4-0.6,16.1-2.8,26.1-6.4c2.5-0.1,4.3,0,5.6,0.4l6.7-1.5
		l19.7-1.7c9.3-0.9,18.4-2.8,27.3-5.6l-0.1-2c-3.7,0.3-5.6-0.3-5.7-1.7c-0.3-2.8-2.9-3.9-8.1-3.4l-0.1-2l5.4-1.5l14.3-1.2l-0.1-2
		c-0.6,0-3.4,0-8.8-0.1l-0.1-2.2l5.6-0.4c1.4-0.1,2.2-0.9,2-2.2c-7.4,0.1-11.2-0.1-11.2-1.1c-51.7,2.5-77.3,2.9-77.6,1.4
		c-0.8,0-1.9,0.4-3.3,1.4l-1.4-2.2c13.7-29,21.7-43.8,24.1-43.9c0.1,1.1-0.4,2.9-1.7,5.4l0.1,0.9h2.2c5.4-13,9.9-19.7,13.8-20
		c16.1-1.4-2.3-2.5,32.4-7.9c1.4,0.6,2.5,0.9,3,0.8c13.7-2.8,32.6-5.6,56.9-8.5l-0.1-2l-13,1.2l-0.1-2c1.4-0.1,2.8-0.6,3.9-1.5
		l0.1,1.1c0.8,0,1.7-0.4,2.9-1.4c2.2-0.1,3.9,0,5.1,0.6c3.6-1,7.2-1.7,10.9-2.2l8.1-0.8c2-1.2,2.9-2.3,2.8-3.4v-0.9
		c-2.4,0.1-4.8,0-7.1-0.5c-0.1-1.1,0.4-1.9,1.9-2.2l15.1-1.4l7-1.7c0,0.8,0.4,1.1,0.9,1.1c0.8,0,1.7-0.4,2.9-1.4
		c3.6,0.4,5.7,0.6,6.2,0.4c2.8-2.6,6.1-4.8,9.6-6.2c-1.5-1.5-2.3-2.8-2.5-3.9l-10.1,0.9c0-0.8-0.4-1.7-1.1-3c0-0.9,2.2-1.9,6.8-2.8
		l2,0.8l1.9-1.1c0,0.6,0.4,0.9,1.1,0.8l1.9-1.1c0,0.6,0.4,0.9,1.1,0.8l0.9-0.1l-0.1-2c-1.4,0.1-5.1,0.1-11,0l-1.9,1.2l-0.1-1.1
		l-80.6,6.7c-0.8,0-4.2,0-9.9-0.1c0,0.8-0.6,1.2-2,1.2l-2-0.9l-7,1.7c-1.5,0.1-4.3,0-8.2-0.3c-1.1,0.9-2.5,1.4-3.9,1.5
		c-1.5,0.1,37.6-2.2,36.3-2.8l-6.1,1.7l-0.9,0.1c-2.5,0.1-5.6,0.1-9.3-0.3c-1.5,1-3.2,1.5-5,1.5c-1.4,0.2-2.8-0.1-4-0.8
		c-5,1.3-10,2.4-15.1,3.3L740.9,329.8z M743.3,336c0,0.8,0.8,1.1,2,0.9v2l-2,0.1c-1.4,0.2-2.8-0.1-4-0.8c-1.1,0.9-2.5,1.4-3.9,1.5
		h0.6l-5.6-0.6l-0.1-0.9c6.8-0.4,9-1.2,12.9-2.3L743.3,336z M748.5,335.6l1.1-0.1l0.1,2l-3,0.3c0-1.1,0.4-1.9,1.9-2.2L748.5,335.6z
		 M760.4,334.3l0.1,1.1c-2.3,0.1-5.3,0.8-8.8,1.9l-1.1,0.1l0.9-2.2L760.4,334.3z M672.3,344.4l3.4-0.3l-0.1-2l-3.4,0.3L672.3,344.4z
		 M696.6,342.3l1.2-0.1l2.3,0.9c0.1,1.4-0.6,2.2-2,2.2l-3.4,0.3l-0.1-1.1C694.5,343.3,695.3,342.7,696.6,342.3L696.6,342.3z
		 M774.7,346.8v0.9l-7,0.6v-0.9L774.7,346.8z M754.7,349.7l0.1,1.1l-4,0.3l-0.1-1.1L754.7,349.7z M773.9,351.3l14-2.3l7.1,0.3
		l0.1,1.1c-3,0.2-6,0.8-8.8,1.9c0-0.8-1.4-1.4-4.2-1.7l-11,3c-2.2-1.2-3.3-2.2-3.3-2.8L773.9,351.3z M760.1,354.2
		c1.4-0.1,2,0.4,2.2,1.9l-5.9,0.6l-0.1-2L760.1,354.2z M747.8,353.6l0.1,1.1l36.3-1.7l-0.1-1.1L747.8,353.6z M750,356.4v0.9
		l-7.9,0.8v-0.9L750,356.4z M698,397.5l0.1,1.1l2.3-0.1c0-1.1,0.3-2.2,0.8-3.3l-0.1-2c-1.2,0.1-2.3,1.5-3,4.3L698,397.5z
		 M618.1,513.6l0.1,0.9c0.1,1.4-0.6,2.2-2.2,2.3l-0.1-0.9C615.7,514.7,616.5,514.1,618.1,513.6z M616,518c0.1,2-1.2,7-4,15.1
		l-3.4,0.3c-0.1-1.4,1.7-6.4,5.3-15.1L616,518z M653.4,550.4c0.1,1.1-1.7,2.3-5.3,3.6l-6.8-0.4l-2.2,0.1l-0.1-2L653.4,550.4z
		 M660.1,551l0.1,0.9l-5.6,0.4l-0.1-0.9L660.1,551z"/>
</g>
</svg>
