<svg id="Layer_1" data-name="Layer 1" xmlns="http://www.w3.org/2000/svg" viewBox="0 0 280 300"><defs><style>.cls-1{fill:#48ba7f;}.cls-2{fill:#8162aa;}.cls-3{fill:#f05023;}.cls-4{fill:#f37264;}.cls-5{fill:#47b8e9;}</style></defs><title>Figma Logo</title><path class="cls-1" d="M113.13,230.6A26.88,26.88,0,0,0,140,203.73V176.87H113.13a26.87,26.87,0,0,0,0,53.73Z"/><path class="cls-2" d="M86.27,150a26.87,26.87,0,0,1,26.86-26.87H140v53.74H113.13A26.87,26.87,0,0,1,86.27,150Z"/><path class="cls-3" d="M86.27,96.27A26.87,26.87,0,0,1,113.13,69.4H140v53.73H113.13A26.87,26.87,0,0,1,86.27,96.27Z"/><path class="cls-4" d="M140,69.4h26.87a26.87,26.87,0,0,1,0,53.73H140Z"/><path class="cls-5" d="M193.73,150a26.87,26.87,0,1,1-26.86-26.87A26.87,26.87,0,0,1,193.73,150Z"/></svg>