<?xml version="1.0" encoding="utf-8"?>
<!-- Generator: Adobe Illustrator 24.2.0, SVG Export Plug-In . SVG Version: 6.00 Build 0)  -->
<svg version="1.1" id="Layer_1" xmlns="http://www.w3.org/2000/svg" xmlns:xlink="http://www.w3.org/1999/xlink" x="0px" y="0px"
	 viewBox="0 0 1000 1000" style="enable-background:new 0 0 1000 1000;" xml:space="preserve">
<style type="text/css">
	.st0{fill:#F9A01B;}
	.st1{fill:#F58020;}
	.st2{fill:#FFCB2A;}
</style>
<g>
	<path class="st0" d="M587.4,392.8l-77.3,71.9L438.4,320l37.1-83.2c9.4-16.6,24.7-16.8,34,0L587.4,392.8z"/>
	<path class="st1" d="M510.1,464.7l-289,268.8L438.4,320L510.1,464.7z"/>
	<path class="st2" d="M672.1,282.7c13.8-13.2,28.1-8.7,31.7,10l75.1,437.1L529.7,879.5c-8.7,4.9-31.9,6.8-31.9,6.8s-21.1-2.6-29.2-7
		L221.1,733.5L672.1,282.7z"/>
	<path class="st0" d="M438.4,320L221.1,733.5l96.8-604.4c3.6-18.7,14.3-20.6,23.8-4L438.4,320z"/>
</g>
</svg>
