<?xml version="1.0" encoding="utf-8"?>
<!-- Generator: Adobe Illustrator 24.2.0, SVG Export Plug-In . SVG Version: 6.00 Build 0)  -->
<svg version="1.1" id="Layer_1" xmlns="http://www.w3.org/2000/svg" xmlns:xlink="http://www.w3.org/1999/xlink" x="0px" y="0px"
	 viewBox="0 0 1000 1000" style="enable-background:new 0 0 1000 1000;" xml:space="preserve">
<style type="text/css">
	.st0{fill:#E2452A;}
	.st1{fill:#F36E2C;}
	.st2{fill:#FAA327;}
</style>
<g>
	<path class="st0" d="M500,859.1l143.6-441.9H356.4L500,859.1L500,859.1z"/>
	<path class="st1" d="M500,859.1L356.4,417.3H155.2L500,859.1z"/>
	<path class="st2" d="M155.2,417.3l-43.6,134.3c-4,12.2,0.4,25.7,10.8,33.2L500,859.1L155.2,417.3L155.2,417.3z"/>
	<path class="st0" d="M155.2,417.3h201.2l-86.5-266.1c-4.5-13.7-23.8-13.7-28.3,0L155.2,417.3L155.2,417.3z"/>
	<path class="st1" d="M500,859.1l143.6-441.9h201.2L500,859.1L500,859.1z"/>
	<path class="st2" d="M844.8,417.3l43.6,134.3c4,12.2-0.4,25.7-10.8,33.2L500,859.1L844.8,417.3L844.8,417.3z"/>
	<path class="st0" d="M844.8,417.3H643.6l86.5-266.1c4.5-13.7,23.8-13.7,28.3,0L844.8,417.3L844.8,417.3z"/>
</g>
</svg>
