<svg id="Layer_1" data-name="Layer 1" xmlns="http://www.w3.org/2000/svg" viewBox="0 0 280 300"><defs><style>.cls-1{fill:#4f4f4f;}.cls-2{fill:#777778;}.cls-3{fill:#f37826;}.cls-4{fill:#9e9e9e;}.cls-5{fill:#616363;}</style></defs><title>Jupyter Logo</title><path class="cls-1" d="M75.32,153.78V135.7h3.94v19.46A11.76,11.76,0,0,1,76.67,164a10,10,0,0,1-6.7,2.44l-.41-2.94a6.35,6.35,0,0,0,4.29-1.64C74.91,160.59,75.32,158.92,75.32,153.78Zm29.37-2.32c0,2.2,0,4.17.17,5.88h-3.49l-.24-3.5a8.15,8.15,0,0,1-7.14,4c-3.41,0-7.46-1.86-7.46-9.41V135.88h3.93v11.76c0,4.08,1.27,6.82,4.82,6.82a5.58,5.58,0,0,0,2.14-.41,5.47,5.47,0,0,0,3-3,5.43,5.43,0,0,0,.41-2.14V135.74h3.94v15.6Zm7.46-8.58c0-2.74,0-5-.17-7h3.52l.18,3.67A8.53,8.53,0,0,1,119,136.4a8.65,8.65,0,0,1,4.43-1c5.23,0,9.17,4.38,9.17,10.9,0,7.7-4.74,11.52-9.85,11.52a7.58,7.58,0,0,1-6.67-3.38v11.76h-3.88v-23.3Zm3.88,5.73a8.41,8.41,0,0,0,.18,1.58,6.06,6.06,0,0,0,2.15,3.29,6.13,6.13,0,0,0,3.72,1.27c4.15,0,6.59-3.38,6.59-8.29,0-4.29-2.3-8-6.44-8a6.76,6.76,0,0,0-6.2,6.43Zm23.53-12.75,4.73,12.67c.5,1.41,1,3.11,1.38,4.38.42-1.3.86-2.94,1.39-4.47l4.29-12.58h4.14l-5.88,15.28c-2.94,7.35-4.73,11.14-7.43,13.43a10.59,10.59,0,0,1-4.82,2.53l-1-3.29a10.39,10.39,0,0,0,3.44-1.91,11.82,11.82,0,0,0,3.32-4.35,2.83,2.83,0,0,0,.32-.94,3.32,3.32,0,0,0-.26-1l-8-19.78h4.29Zm26.38-6.16v6.17h5.65v2.94h-5.65v11.57c0,2.65.77,4.18,2.94,4.18a8.86,8.86,0,0,0,2.29-.27l.18,2.94a9.67,9.67,0,0,1-3.5.53,5.39,5.39,0,0,1-2.31-.36,5.51,5.51,0,0,1-1.95-1.28,8,8,0,0,1-1.53-5.59V138.78h-3.35v-2.94h3.41v-5.23Zm12.9,17.59a6.9,6.9,0,0,0,7.43,7.43,14.13,14.13,0,0,0,5.88-1.12l.68,2.94a17.78,17.78,0,0,1-7.2,1.33,10.16,10.16,0,0,1-4.23-.63A10,10,0,0,1,175,147.05c0-6.46,3.85-11.58,10.14-11.58,7.05,0,8.81,6.17,8.81,10.11a13.82,13.82,0,0,1,0,1.82H178.75Zm11.52-2.94a5.6,5.6,0,0,0-1.29-4.42,5.57,5.57,0,0,0-1.88-1.42,5.51,5.51,0,0,0-2.3-.51,6.5,6.5,0,0,0-6,6.35Zm9.56-1.81c0-2.52,0-4.7-.18-6.7h3.53v4.21h.18a6.49,6.49,0,0,1,5.87-4.71,5.24,5.24,0,0,1,1.12,0V139a6.09,6.09,0,0,0-1.35,0,5.48,5.48,0,0,0-5.26,5,11.13,11.13,0,0,0-.18,1.83v11.43h-3.88v-14.7Z"/><path class="cls-2" d="M198.19,76.83a10,10,0,1,1-19.32-2.76,10,10,0,0,1,8.95-6.59,9.93,9.93,0,0,1,3.82.55,9.85,9.85,0,0,1,6.55,8.8Z"/><path class="cls-3" d="M140.09,191.92c-26.45,0-49.7-9.49-61.72-23.51a65.8,65.8,0,0,0,123.43,0C189.81,182.43,166.65,191.92,140.09,191.92Z"/><path class="cls-3" d="M140.09,100.77c26.44,0,49.69,9.49,61.71,23.51a65.81,65.81,0,0,0-123.43,0C90.39,110.24,113.52,100.77,140.09,100.77Z"/><path class="cls-4" d="M103.68,219.2A12.55,12.55,0,1,1,90.6,207.45a12.46,12.46,0,0,1,11.88,7.05A12.56,12.56,0,0,1,103.68,219.2Z"/><path class="cls-5" d="M81.38,97.58a7.22,7.22,0,0,1-6.79-4.26,7.22,7.22,0,0,1,1.31-7.9,7.22,7.22,0,0,1,12.5,4.64,7.31,7.31,0,0,1-7,7.52Z"/></svg>